<svg width="467" height="347" viewBox="0 0 467 347" fill="none" xmlns="http://www.w3.org/2000/svg"><path fill-rule="evenodd" clip-rule="evenodd" d="M14 32h168v191H14V32z" fill="#4AF6CD"/><path opacity=".065" d="M73.6 44.4c18.533 0 34.467 5.867 47.8 17.6l-18.2 19c-5.067-3.6-9.667-6.2-13.8-7.8-4-1.733-8.6-2.6-13.8-2.6-10 0-17.867 3.867-23.6 11.6-5.6 7.733-8.4 19.533-8.4 35.4 0 11.6.933 20.8 2.8 27.6 1.867 6.667 4.667 11.467 8.4 14.4 3.867 2.933 8.8 4.4 14.8 4.4s11.467-1.267 16.4-3.8v-28.6H70.2l-3.6-25.4h55.2v69.2c-7.2 4.8-15.333 8.533-24.4 11.2-9.067 2.667-18 4-26.8 4-43.467 0-65.2-24.4-65.2-73.2 0-15.2 2.933-28.267 8.8-39.2 6-11.067 14.133-19.467 24.4-25.2 10.267-5.733 21.933-8.6 35-8.6zm125.283 0c20.133 0 35.8 6.4 47 19.2 11.2 12.8 16.8 30.733 16.8 53.8 0 15.067-2.534 28.133-7.6 39.2-4.934 10.933-12.2 19.333-21.8 25.2-9.6 5.867-21.067 8.8-34.4 8.8-20.134 0-35.8-6.4-47-19.2-11.067-12.8-16.6-30.8-16.6-54 0-15.067 2.466-28.067 7.4-39 5.066-10.933 12.333-19.333 21.8-25.2 9.6-5.867 21.066-8.8 34.4-8.8zm0 26.6c-8.667 0-15.067 3.6-19.2 10.8-4 7.2-6 19.067-6 35.6s2.066 28.467 6.2 35.8c4.133 7.2 10.466 10.8 19 10.8 8.8 0 15.2-3.6 19.2-10.8 4-7.2 6-19.133 6-35.8 0-16.533-2-28.4-6-35.6-4-7.2-10.4-10.8-19.2-10.8zM58.8 200.4c10.533 0 19.8 1.533 27.8 4.6 8.133 3.067 15.4 7.667 21.8 13.8l-16.6 19.6c-9.6-7.6-19.667-11.4-30.2-11.4-5.467 0-9.667 1.067-12.6 3.2-2.8 2-4.2 4.867-4.2 8.6 0 2.667.733 4.867 2.2 6.6 1.467 1.733 3.933 3.4 7.4 5 3.467 1.6 8.933 3.6 16.4 6 14.267 4.533 24.667 10.267 31.2 17.2 6.667 6.8 10 16.267 10 28.4 0 8.8-2.267 16.6-6.8 23.4-4.533 6.667-11.133 11.867-19.8 15.6-8.533 3.733-18.6 5.6-30.2 5.6-22.133 0-40.2-6.733-54.2-20.2l18.2-20.2c11.067 9.067 22.6 13.6 34.6 13.6 6.267 0 11.133-1.333 14.6-4 3.467-2.8 5.2-6.467 5.2-11 0-3.2-.667-5.8-2-7.8-1.333-2.133-3.733-4-7.2-5.6-3.333-1.733-8.267-3.6-14.8-5.6-15.733-4.933-26.8-10.867-33.2-17.8-6.4-6.933-9.6-15.667-9.6-26.2 0-8.267 2.2-15.533 6.6-21.8 4.533-6.267 10.733-11.067 18.6-14.4 8-3.467 16.933-5.2 26.8-5.2zm178.016 96c0 9.6-2.134 18.2-6.4 25.8-4.134 7.6-10.4 13.6-18.8 18-8.4 4.267-18.667 6.4-30.8 6.4-18.4 0-32.334-4.467-41.8-13.4-9.467-9.067-14.2-21.333-14.2-36.8V204h37v91.2c0 8.4 1.466 14.6 4.4 18.6 3.066 3.867 7.933 5.8 14.6 5.8 6.666 0 11.466-2 14.4-6 2.933-4 4.4-10.133 4.4-18.4V204h37.2v92.4zm66.692-4.6h-10.2V343h-37V204h48.2c19.6 0 34.2 3.533 43.8 10.6 9.733 7.067 14.6 17.933 14.6 32.6 0 8.8-2.067 16.133-6.2 22-4 5.867-10.467 11.133-19.4 15.8l34.6 58h-41.2l-27.2-51.2zm-10.2-25.2h12.4c12.8 0 19.2-6.467 19.2-19.4 0-6-1.8-10.4-5.4-13.2-3.467-2.8-8.734-4.2-15.8-4.2h-10.4v36.8zm87.023 76.4V204h85.4l-3.8 26.2h-44.6v33.4h39.2v26.2h-39.2V343h-37z" fill="#fff"/><path d="M74.22 187.36c0-3.16.46-5.94 1.38-8.34.92-2.44 2.3-4.62 4.14-6.54l5.88 4.98c-2.28 2.88-3.42 5.9-3.42 9.06 0 1.64.32 2.9.96 3.78.6.84 1.46 1.26 2.58 1.26.8 0 1.46-.22 1.98-.66.52-.44 1.02-1.18 1.5-2.22.48-1.04 1.08-2.68 1.8-4.92 1.36-4.28 3.08-7.4 5.16-9.36 2.04-2 4.88-3 8.52-3 2.64 0 4.98.68 7.02 2.04 2 1.36 3.56 3.34 4.68 5.94 1.12 2.56 1.68 5.58 1.68 9.06 0 6.64-2.02 12.06-6.06 16.26l-6.06-5.46c2.72-3.32 4.08-6.78 4.08-10.38 0-1.88-.4-3.34-1.2-4.38-.84-1.04-1.94-1.56-3.3-1.56-.96 0-1.74.2-2.34.6-.64.4-1.2 1.12-1.68 2.16-.52 1-1.08 2.48-1.68 4.44-1.48 4.72-3.26 8.04-5.34 9.96-2.08 1.92-4.7 2.88-7.86 2.88-2.48 0-4.66-.66-6.54-1.98-1.88-1.36-3.32-3.22-4.32-5.58-1.04-2.4-1.56-5.08-1.56-8.04zm28.8-53.405c2.88 0 5.46.64 7.74 1.92 2.28 1.24 4.08 3.12 5.4 5.64 1.28 2.52 1.92 5.6 1.92 9.24 0 5.52-1.34 9.7-4.02 12.54-2.72 2.84-6.4 4.26-11.04 4.26H75.3v-11.1h27.36c2.52 0 4.38-.44 5.58-1.32 1.16-.92 1.74-2.38 1.74-4.38s-.6-3.44-1.8-4.32c-1.2-.88-3.04-1.32-5.52-1.32H75.3v-11.16h27.72zm-1.38-20.007v3.06H117v11.1H75.3v-14.46c0-5.88 1.06-10.26 3.18-13.14 2.12-2.92 5.38-4.38 9.78-4.38 2.64 0 4.84.62 6.6 1.86 1.76 1.2 3.34 3.14 4.74 5.82l17.4-10.38v12.36l-15.36 8.16zm-7.56 3.06v-3.72c0-3.84-1.94-5.76-5.82-5.76-1.8 0-3.12.54-3.96 1.62-.84 1.04-1.26 2.62-1.26 4.74v3.12h11.04zM117 90.901H75.3V65.28l7.86 1.14V79.8h10.02V68.04h7.86V79.8H117v11.1zM74.22 299.92c0-5.56 1.76-10.34 5.28-14.34l5.7 5.46c-1.08 1.52-1.86 2.9-2.34 4.14-.52 1.2-.78 2.58-.78 4.14 0 3 1.16 5.36 3.48 7.08 2.32 1.68 5.86 2.52 10.62 2.52 3.48 0 6.24-.28 8.28-.84 2-.56 3.44-1.4 4.32-2.52.88-1.16 1.32-2.64 1.32-4.44 0-1.8-.38-3.44-1.14-4.92h-8.58v4.74l-7.62 1.08v-16.56h20.76c1.44 2.16 2.56 4.6 3.36 7.32.8 2.72 1.2 5.4 1.2 8.04 0 13.04-7.32 19.56-21.96 19.56-4.56 0-8.48-.88-11.76-2.64-3.32-1.8-5.84-4.24-7.56-7.32-1.72-3.08-2.58-6.58-2.58-10.5zm0-37.585c0-6.04 1.92-10.74 5.76-14.1 3.84-3.36 9.22-5.04 16.14-5.04 4.52 0 8.44.76 11.76 2.28 3.28 1.48 5.8 3.66 7.56 6.54 1.76 2.88 2.64 6.32 2.64 10.32 0 6.04-1.92 10.74-5.76 14.1-3.84 3.32-9.24 4.98-16.2 4.98-4.52 0-8.42-.74-11.7-2.22-3.28-1.52-5.8-3.7-7.56-6.54-1.76-2.88-2.64-6.32-2.64-10.32zm7.98 0c0 2.6 1.08 4.52 3.24 5.76 2.16 1.2 5.72 1.8 10.68 1.8s8.54-.62 10.74-1.86c2.16-1.24 3.24-3.14 3.24-5.7 0-2.64-1.08-4.56-3.24-5.76-2.16-1.2-5.74-1.8-10.74-1.8-4.96 0-8.52.6-10.68 1.8-2.16 1.2-3.24 3.12-3.24 5.76zM97 233v-20h1v20z" fill="#fff"/></svg>