<svg width="61" height="48" viewBox="0 0 61 48" fill="none" xmlns="http://www.w3.org/2000/svg"><path fill-rule="evenodd" clip-rule="evenodd" d="M59.598 43.861a.517.517 0 01-.036.083.172.172 0 01-.056.073.95.95 0 01-.033.048l-.016.024c-.019.023-.04.05-.061.073-.019.02-.038.038-.059.057a.633.633 0 01-.146.11c-.028.014-.054.03-.085.044a.557.557 0 01-.089.036.437.437 0 00-.018.008l-.013.005a.144.144 0 01-.025.008c-.01.003-.017 0-.026.003a.893.893 0 01-.226.03.39.39 0 00-.143.017c-.044.05-.122.304-.172.464l-.005.016c-.183.593-.567 1.827-2.116 1.827-1.326 0-1.984-.888-2.466-1.538l-.004-.005c-.451-.614-.623-.78-.961-.78-.34 0-.508.166-.962.778l-.004.005c-.481.65-1.14 1.538-2.468 1.538-1.326 0-1.984-.889-2.466-1.538l-.003-.005c-.452-.612-.624-.778-.962-.778-.336 0-.508.166-.962.78-.48.65-1.14 1.543-2.47 1.543-1.328 0-1.986-.888-2.468-1.538l-.003-.005c-.452-.612-.623-.778-.962-.778-.339 0-.508.166-.962.778-.48.65-1.138 1.543-2.47 1.543-1.325 0-1.983-.888-2.465-1.538l-.004-.005c-.451-.612-.623-.778-.961-.778-.337 0-.508.166-.962.78-.48.651-1.14 1.543-2.47 1.543-1.325 0-1.984-.888-2.466-1.538l-.003-.004c-.451-.612-.623-.779-.962-.779-.336 0-.508.167-.962.781-.48.65-1.14 1.543-2.47 1.543a1.4 1.4 0 01-1.074-.487c-.656-.754-.524-2.04-.254-4.077l.005-.035c.096-.737.244-1.86.195-2.407-1.757.346-4.25 3.9-5.543 6.484a.937.937 0 01-.84.522c-.018 0-.037 0-.056-.002a.937.937 0 01-.828-.622c-.216-.603-2.065-5.974-.143-8.945.72-1.11 1.886-1.75 3.377-1.846 1.296-.086 1.888-.437 2.001-.715.075-.185-.044-.5-.308-.802-.7-.804-2.267-1.45-4.05-.961-2.471.674-5.242 4.018-6.175 7.454-.327 1.209-.68 3.444.656 4.828a.957.957 0 01-.019 1.343.934.934 0 01-1.331-.019c-1.475-1.526-1.872-3.89-1.122-6.652.971-3.58 4.043-7.844 7.5-8.786 2.575-.702 4.844.266 5.954 1.54.77.88 1 1.894.635 2.782-.317.771-1.201 1.725-3.619 1.884-.9.06-1.529.385-1.921.99-.793 1.224-.61 3.396-.25 5.128 1.412-2.285 3.888-5.605 6.451-5.525.414.015.788.195 1.051.51.264.314.393.72.44 1.223 1.731-1.156 4.257-2.3 9.243-2.808-5.405-22.095 4.755-34.533 5.216-35.081l.011-.01a.384.384 0 01.16-.147c.03-.02.058-.035.089-.052l.02-.012a.475.475 0 01.059-.033.92.92 0 01.136-.045l.033-.009a.9.9 0 01.214-.027l.139.005c.277 0 .538.121.717.335.46.545 10.57 12.92 5.263 34.908 13.88.82 15.578 6.41 15.643 6.654a.12.12 0 01.003.016v.008l.002.007.014.093c.005.033.01.066.01.1v.014l.001.002.001.012a.184.184 0 01-.001.025l-.004.03v.003a1.09 1.09 0 01-.03.184l-.005.016-.003.012a.555.555 0 01-.02.062zm-20.79-4.314h2.432c5.355-17.673.317-29.587-2.432-34.317v34.317zM36.927 5.479v34.068h-2.293c-5.252-17.33-.478-29.168 2.293-34.068zm19.672 38.94l.005-.014c.11-.356.298-.94.761-1.35-1.041-1.33-4.327-4.059-13.863-4.555-.207.752-.43 1.514-.675 2.288a.943.943 0 01-.896.662H33.94a.943.943 0 01-.896-.662 70.602 70.602 0 01-.628-2.131c-6.046.574-8.21 2.105-9.863 3.396l-.022.166c-.01.087-.022.175-.035.268-.091.693-.232 1.76-.204 2.33.171-.102.345-.31.628-.695l.003-.004c.482-.65 1.14-1.538 2.468-1.538 1.326 0 1.985.888 2.466 1.538l.004.004c.451.612.623.779.962.779.338 0 .508-.167.961-.779l.004-.004c.482-.65 1.14-1.538 2.468-1.538 1.326 0 1.984.888 2.466 1.538l.003.004c.454.612.626.779.962.779.339 0 .508-.167.962-.779.48-.65 1.139-1.542 2.47-1.542 1.325 0 1.984.888 2.465 1.538l.004.004c.454.615.625.781.964.781.339 0 .508-.166.962-.778l.003-.005c.482-.65 1.14-1.538 2.469-1.538 1.325 0 1.984.888 2.466 1.538l.003.005c.452.612.623.778.962.778.338 0 .51-.166.964-.78.48-.651 1.14-1.543 2.47-1.543 1.327 0 1.986.888 2.468 1.538l.003.004c.454.612.626.779.962.779.106 0 .143-.017.143-.017.044-.05.122-.304.172-.464z" fill="#fff"/><path d="M59.562 43.944l-.44-.238.758.624-.318-.386zm.036-.083l-.463-.19-.006.016-.006.017.475.157zm-.035.083l.448.222-.766-.608.318.386zm-.057.073l-.279-.414-.087.058-.057.09.423.267zm-.033.048l-.406-.291-.002.002.408.29zm-.016.024l.392.31.008-.01.008-.011-.408-.29zm-.061.073l.355.352.01-.01.008-.009-.373-.333zm-.059.057l-.334-.372-.01.01-.011.01.355.352zm-.075.064l.279.415.008-.006.009-.006-.296-.403zm-.07.045l.224.447.018-.009.016-.01-.259-.428zm-.086.045l-.21-.453-.008.003-.007.004.225.447zm-.062.026l.172.47-.172-.47zm-.027.01l.177.468.004-.002-.18-.466zm-.018.008l.197.46.004-.002-.201-.458zm-.013.005l.19.463.008-.003-.197-.46zm-.025.008l-.11-.488-.013.004.123.484zm-.026.003l-.123-.485-.003.001.126.484zm-.37.047l-.201-.457-.104.046-.074.086.38.325zm-.17.464l.474.158.003-.01-.478-.148zm0 0l-.475-.158-.004.01-.003.01.481.138zm0 0l.477.148.003-.01-.48-.138zm-.006.016l-.477-.149v.001l.477.148zm-4.582.289l.401-.298-.401.298zm-.004-.005l-.403.297.002.001.401-.298zm-1.923-.002l-.402-.298.402.298zm-.004.005l.402.297-.402-.297zm-4.934 0l-.402.297.402-.297zm-.003-.005l-.403.297.403-.297zm-1.924.002l-.402-.297.402.297zm-4.938.005l-.401.298.401-.298zm-.003-.005l-.402.297v.001l.402-.298zm-1.924 0l-.402-.297.402.297zm-4.935.005l.401-.298-.401.298zm-.004-.005l-.402.297v.001l.402-.298zm-1.923.003l-.402-.297.402.297zm-4.936.004l.402-.297-.402.297zm-.003-.004l-.402.297.402-.297zm-1.924.002l-.402-.297.402.297zm-3.544 1.056l.379-.326-.002-.002-.377.328zm-.254-4.077l.496.066-.496-.066zm.005-.035l-.496-.065.496.065zm.195-2.407l.498-.044-.05-.554-.545.108.097.49zm-5.543 6.484l-.447-.224v.002l.447.222zm-.896.52l.063-.496-.017-.002-.017-.002-.029.5zm-.828-.622l.471-.168-.47.168zm-.143-8.945l-.42-.272.42.272zm3.377-1.846l.032.498-.032-.498zm2.001-.715l.463.188-.463-.188zm-.308-.802l-.377.328v.001l.377-.329zm-4.05-.961l.132.482-.132-.482zm-6.175 7.454l-.483-.13.483.13zm.656 4.828l.36-.346v-.002l-.36.348zm-.019 1.343l.35.358v-.002l-.35-.356zm-1.331-.019l.36-.347-.36.347zm-1.122-6.652l.483.13-.483-.13zm7.5-8.786l.131.482-.131-.482zm5.954 1.54l-.377.329.377-.329zm.635 2.782l.463.19-.463-.19zm-3.619 1.884l-.033-.499.033.5zm-1.921.99l-.42-.272.42.272zm-.25 5.128l-.49.102.256 1.23.66-1.069-.426-.263zm6.451-5.525l.017-.5h-.001l-.016.5zm1.051.51l-.383.321v.001l.383-.321zm.44 1.223l-.498.046.078.835.698-.465-.278-.416zm9.243-2.808l.05.498.572-.059-.136-.557-.486.118zM37.146 1.71l-.355-.352-.015.015-.013.015.383.322zm.011-.01l.313.39-.313-.39zm.015-.014l-.37-.337-.016.019-.016.02.402.298zm.087-.083l.325.38.015-.013.015-.015-.355-.352zm.059-.05l-.28-.414.28.414zm.088-.052l.245.435-.245-.435zm.02-.012l.245.436.011-.006.01-.007-.266-.423zm.059-.033l-.196-.46L37.28 1l.205.456zm.136-.045L37.55.916l-.026.004-.025.006.122.485zm.033-.009l.16.474.004-.002-.164-.472zm0 0l-.16-.474-.004.002.164.472zm.016-.005l-.11-.488-.014.003-.014.004.138.48zm.198-.022l.017-.5h-.018v.5zm.139.005l-.017.5h.017v-.5zm.717.335l-.383.32.001.002.382-.322zm5.263 34.908l-.486-.117-.14.58.597.036.03-.5zm15.643 6.654l.486-.12-.003-.01-.483.13zm.003.016l.497-.054-.497.054zm0 .008l.496-.07v-.001l-.495.07zm.002.007l.495-.075-.004-.023-.005-.022-.486.12zm.014.093l.495-.07v-.006l-.495.076zm.01.114l.497-.06v-.002l-.496.062zm.001.002l-.496.06.496-.06zm0 .025l-.498-.027.499.027zm0 .012l-.498-.046.498.046zm-.004.03l-.496-.062-.001.013-.001.013.498.036zm0 .003l.499.035-.499-.035zm-.011.099l-.49-.104-.002.01-.002.012.494.082zm-.02.085l.479.146.004-.013.003-.013-.485-.12zm-.004.016l-.48-.138.48.138zm-.003.012l.481.136-.481-.136zM41.24 39.547v.5h.37l.108-.355-.478-.145zm-2.432 0h-.5v.5h.5v-.5zm0-34.317l.432-.252-.932-1.604V5.23h.5zm-1.881 34.317v.5h.5v-.5h-.5zm0-34.068h.5v-1.9l-.935 1.654.435.246zm-2.293 34.068l-.479.145.108.355h.37v-.5zm21.97 4.858l.477.148.232-.746-.774.102.065.495zm-.005.015l-.477-.148.477.148zm.004-.015l-.477-.149-.232.746.774-.102-.065-.495zm.762-1.35l.332.373.352-.312-.29-.37-.394.308zM43.502 38.5l.026-.5-.402-.02-.106.387.482.133zm-.675 2.288l.477.15-.477-.15zm-9.783 0l-.477.15.477-.15zm-.628-2.131l.482-.135-.113-.403-.416.04.047.498zm-9.863 3.396l-.308-.394-.161.126-.027.202.496.066zm-.022.166l-.496-.063.496.063zm-.035.268l-.495-.069v.003l.495.066zm-.204 2.33l-.5.025.041.83.714-.425-.255-.43zm.628-.695l-.402-.298-.001.002.403.296zm.003-.004l.402.297-.402-.297zm4.934 0l-.401.297.401-.297zm.004.004l.402-.297-.402.297zm1.923 0l-.401-.298.401.298zm.004-.004l.401.297-.401-.297zm4.934 0l-.402.297.402-.297zm.003.004l.402-.298-.402.298zm1.924 0l.402.298v-.001l-.402-.297zm4.935-.005l-.401.298.401-.297zm.004.005l.402-.297-.402.297zm1.926.003l.402.297-.402-.297zm.003-.005l-.401-.298.401.298zm4.935 0l.401-.298-.401.298zm.003.005l.402-.297v-.001l-.402.298zm1.926-.003l.402.297-.402-.297zm4.938-.004l.401-.298-.401.298zm.003.004l-.402.298.402-.298zm1.105.762l.202.457.104-.046.074-.086-.38-.325zm3.575-.702c.03-.057.053-.113.07-.164l-.95-.314a.05.05 0 01-.001.005l.002-.003.88.476zm-.757-.624l.635.772-.635-.772zm.54.874c.148-.1.21-.236.226-.266l-.896-.444c-.014.027.02-.058.112-.12l.558.83zm.095-.075c.01-.014.03-.04.05-.073l-.847-.533a.95.95 0 01-.016.023l.813.583zm-.015.021l.016-.023-.816-.579-.016.023.816.579zm-.096.117c.031-.035.06-.07.08-.096l-.784-.62a1.214 1.214 0 01-.042.05l.746.666zm-.098.096c.034-.03.062-.06.08-.077l-.71-.704a.917.917 0 01-.038.037l.668.744zm-.113.095c.04-.03.088-.068.134-.115l-.71-.704-.004.004a.274.274 0 01-.012.01l.592.805zm-.108.07c.031-.019.064-.04.09-.058l-.557-.83-.05.033.517.855zm-.132.07l.076-.038.017-.01a.032.032 0 01.005-.003l-.45-.893a1.702 1.702 0 00-.06.032l-.01.006.422.907zm-.102.043c.016-.006.065-.024.116-.05l-.45-.892.009-.005-.005.003c-.004 0-.008.002-.013.004l.343.94zm-.018.006l.018-.006-.343-.94a1.541 1.541 0 00-.037.014l.362.932zm.002 0l.003-.002-.009.004-.354-.936-.042.018.402.916zm-.017.007l.013-.006-.394-.919-.013.005.395.92zm-.113.036a.653.653 0 00.106-.033l-.38-.925a.333.333 0 01.055-.017l.22.975zm-.013 0a.468.468 0 01-.103.014h-.006.012a.57.57 0 00.123-.017l-.245-.97a.459.459 0 01.104-.013h-.006a.49.49 0 00-.124.016l.245.97zm-.348.046c.129 0 .247-.02.352-.047l-.252-.968a.401.401 0 01-.1.015v1zm-.143-.484a42.728 42.728 0 01.2.458l-.002.001-.004.002-.007.003a.506.506 0 01-.065.02c-.011.002-.006 0 .021 0v-1a1.114 1.114 0 00-.28.035.574.574 0 00-.034.011l-.016.006-.008.004-.004.001-.001.001h-.001l.2.458zm.306.612c.025-.082.055-.176.082-.256l.033-.088.003-.006a.4.4 0 01-.044.063l-.76-.65c-.068.079-.106.172-.118.2a4.672 4.672 0 00-.151.441l.955.296zm-.004.01l-.948-.316.948.316zm.007-.02l-.962-.275.962.275zm-.008.026l.005-.016-.956-.296-.004.015.955.297zm-2.594 2.18c.932 0 1.555-.383 1.958-.876.381-.467.546-1.014.636-1.305l-.955-.295c-.094.302-.213.67-.456.968-.222.272-.566.507-1.183.507v1zm-2.868-1.741c.474.64 1.268 1.74 2.868 1.74v-1c-1.052 0-1.575-.675-2.065-1.336l-.803.596zm-.003-.005l.003.005.803-.596-.003-.005-.803.596zm-.56-.578c.042 0 .057.005.062.006.004.002.02.008.056.037.087.073.209.218.44.533l.806-.592c-.22-.299-.41-.545-.605-.708a1.122 1.122 0 00-.76-.276v1zm-.56.576c.233-.315.354-.46.442-.533a.193.193 0 01.056-.037.183.183 0 01.062-.006v-1c-.283 0-.524.08-.759.275-.195.163-.385.408-.605.705l.803.596zm-.004.004l.003-.004-.803-.596-.003.005.803.595zm-2.87 1.74c1.602 0 2.396-1.1 2.87-1.74l-.803-.595c-.49.66-1.013 1.336-2.067 1.336v1zm-2.868-1.74c.474.64 1.268 1.74 2.868 1.74v-1c-1.051 0-1.575-.675-2.064-1.335l-.804.595zm-.003-.004l.003.004.804-.595-.004-.005-.803.596zm-.56-.576c.042 0 .057.005.062.006a.194.194 0 01.056.037c.088.073.21.217.441.532l.805-.594c-.22-.298-.41-.543-.606-.706a1.123 1.123 0 00-.758-.275v1zm-.56.577c.233-.315.355-.46.444-.534.035-.03.052-.035.056-.037.004-.001.018-.006.06-.006v-1c-.282 0-.523.08-.758.276-.195.163-.386.408-.606.707l.804.594zm-2.872 1.746c1.604 0 2.4-1.105 2.872-1.746l-.805-.593c-.487.66-1.013 1.34-2.067 1.34v1zm-2.87-1.74c.475.64 1.268 1.74 2.87 1.74v-1c-1.053 0-1.577-.676-2.066-1.336l-.803.596zm-.003-.005l.004.005.803-.596-.004-.004-.803.595zm-.56-.576c.042 0 .058.005.062.007a.195.195 0 01.056.037c.088.073.21.217.442.531l.804-.593c-.22-.298-.41-.543-.605-.706a1.123 1.123 0 00-.759-.276v1zm-.56.576c.233-.315.355-.46.443-.533a.192.192 0 01.055-.036.183.183 0 01.062-.007v-1c-.282 0-.524.08-.758.276-.195.163-.385.407-.606.705l.804.595zm-2.871 1.745c1.606 0 2.4-1.106 2.871-1.746l-.804-.593c-.488.66-1.011 1.34-2.067 1.34v1zm-2.868-1.74c.474.64 1.268 1.74 2.868 1.74v-1c-1.051 0-1.575-.675-2.064-1.336l-.804.596zm-.003-.005l.003.005.803-.596-.003-.004-.803.595zm-.56-.576c.042 0 .057.005.062.007a.195.195 0 01.056.037c.088.073.21.217.441.531l.805-.593c-.22-.298-.41-.543-.606-.706a1.123 1.123 0 00-.758-.276v1zm-.56.578c.233-.316.355-.46.443-.534a.192.192 0 01.056-.038.175.175 0 01.06-.006v-1c-.281 0-.523.08-.757.276-.195.164-.386.409-.607.708l.805.594zm-2.872 1.745c1.604 0 2.4-1.105 2.872-1.745l-.805-.594c-.487.66-1.013 1.34-2.067 1.34v1zm-2.867-1.74c.474.64 1.267 1.74 2.867 1.74v-1c-1.05 0-1.574-.675-2.064-1.335l-.803.595zm-.004-.004l.004.004.803-.595-.003-.005-.804.596zm-.56-.577c.043 0 .058.005.062.007a.189.189 0 01.057.037c.087.073.209.217.44.532l.805-.594c-.22-.298-.41-.543-.605-.706a1.123 1.123 0 00-.759-.276v1zm-.56.578c.233-.315.356-.46.444-.534a.194.194 0 01.056-.037.178.178 0 01.06-.007v-1c-.282 0-.523.081-.757.277-.196.163-.386.408-.607.707l.805.594zm-2.871 1.746c1.603 0 2.4-1.106 2.872-1.746l-.805-.594c-.487.66-1.013 1.34-2.067 1.34v1zm-1.453-.66a1.9 1.9 0 001.453.66v-1a.9.9 0 01-.696-.313l-.757.653zm-.372-4.47c-.134 1.01-.24 1.88-.224 2.597.016.72.158 1.37.597 1.874l.755-.656c-.217-.25-.338-.62-.352-1.241-.015-.624.08-1.415.216-2.442l-.992-.132zm.005-.034l-.005.035.992.13.005-.035-.992-.13zm.193-2.298c.02.222 0 .597-.043 1.04-.042.431-.102.888-.15 1.258l.992.13c.048-.367.11-.84.154-1.291.042-.44.072-.9.043-1.225l-.996.088zm-4.598 6.664c.633-1.265 1.561-2.769 2.541-3.993.49-.612.984-1.143 1.452-1.537.477-.402.884-.625 1.2-.687l-.194-.981c-.562.11-1.125.461-1.65.904-.535.45-1.074 1.034-1.588 1.676a24.703 24.703 0 00-2.655 4.17l.894.448zm-1.287.798c.542 0 1.043-.306 1.288-.8l-.896-.444a.437.437 0 01-.392.244v1zm-.119-.006c.056.007.106.006.12.006v-1h-.014l.019.002-.126.992zm-1.236-.95c.195.544.695.92 1.27.953l.058-.998A.437.437 0 0114.03 46l-.942.336zm-.092-9.385c-1.064 1.646-1.057 3.889-.805 5.701.255 1.839.784 3.369.898 3.685l.941-.338a18.702 18.702 0 01-.849-3.485c-.246-1.766-.203-3.694.655-5.02l-.84-.543zm3.764-2.073c-1.625.106-2.946.812-3.764 2.073l.84.544c.621-.96 1.633-1.531 2.99-1.62l-.066-.997zm1.571-.404c.02-.05.002.038-.284.155-.26.107-.675.208-1.287.249l.066.997c.684-.045 1.212-.161 1.601-.321.363-.15.697-.375.83-.704l-.926-.376zm-.221-.285c.102.117.162.221.19.294a.234.234 0 01.016.058c0 .002-.002-.025.015-.067l.926.376c.107-.262.05-.532-.023-.724a2.027 2.027 0 00-.371-.595l-.753.658zm-3.541-.808c1.608-.441 2.973.156 3.54.807l.754-.656c-.834-.958-2.602-1.652-4.559-1.115l.265.964zm-5.826 7.104c.447-1.643 1.336-3.275 2.414-4.576 1.085-1.31 2.315-2.229 3.411-2.528l-.263-.965c-1.375.376-2.767 1.466-3.918 2.855-1.16 1.4-2.121 3.158-2.609 4.951l.965.263zm.534 4.348c-.554-.573-.777-1.342-.812-2.153-.035-.812.122-1.617.278-2.196l-.965-.261c-.17.63-.353 1.546-.312 2.5.04.954.309 1.995 1.091 2.805l.72-.695zM9.25 46.88c.566-.557.58-1.47.029-2.046l-.722.693a.457.457 0 01-.009.64l.702.713zm-2.042-.028a1.434 1.434 0 002.04.03l-.698-.716a.435.435 0 01-.622-.008l-.72.694zm-1.244-7.13c-.778 2.865-.394 5.435 1.244 7.13l.72-.694c-1.31-1.357-1.722-3.514-1-6.174l-.964-.262zm7.85-9.137c-1.867.509-3.582 1.896-4.939 3.572-1.362 1.68-2.406 3.703-2.911 5.565l.965.262c.466-1.718 1.442-3.617 2.723-5.198 1.286-1.587 2.836-2.803 4.425-3.237l-.263-.964zm6.463 1.694c-1.235-1.418-3.701-2.448-6.463-1.694l.263.964c2.389-.651 4.461.256 5.446 1.387l.754-.657zm.72 3.3c.454-1.105.141-2.315-.72-3.3l-.753.657c.677.775.824 1.592.549 2.263l.925.38zm-4.048 2.193c1.268-.083 2.18-.378 2.83-.788.657-.414 1.023-.93 1.219-1.405l-.925-.38c-.122.295-.357.643-.826.939-.475.299-1.215.56-2.364.636l.066.998zm-1.535.763c.286-.44.749-.711 1.535-.763l-.066-.998c-1.015.067-1.808.447-2.308 1.217l.84.544zm-.179 4.755c-.176-.846-.305-1.784-.297-2.649.008-.876.156-1.612.476-2.107l-.84-.543c-.472.73-.627 1.693-.636 2.641-.009.96.134 1.974.318 2.861l.979-.203zm5.977-5.923c-1.496-.047-2.886.89-4.025 2.02-1.157 1.146-2.153 2.585-2.867 3.742l.85.525c.698-1.13 1.646-2.492 2.72-3.557 1.093-1.082 2.223-1.764 3.29-1.73l.032-1zm1.42.69a1.914 1.914 0 00-1.419-.69l-.034 1a.916.916 0 01.685.33l.767-.64zm.553 1.495c-.052-.559-.202-1.077-.555-1.497l-.765.643c.173.207.283.5.324.947l.996-.093zm8.694-3.258c-5.052.515-7.66 1.68-9.47 2.889l.556.832c1.651-1.103 4.096-2.225 9.015-2.726l-.1-.995zm4.884-34.906c-.52.619-10.775 13.217-5.319 35.522l.972-.237c-5.353-21.885 4.711-34.164 5.113-34.641l-.766-.644zm.083-.079c-.002.002-.028.022-.055.049l.71.704a.436.436 0 01-.025.023l-.007.006-.623-.782zm-.075.079a.45.45 0 01.056-.063l.019-.016.624.782.033-.029a.552.552 0 00.07-.077l-.803-.597zm.163-.165a1.49 1.49 0 00-.131.126l.738.675a.475.475 0 01.043-.04l-.65-.761zm.105-.084a.881.881 0 00-.135.112l.71.704c.004-.004-.002.003-.017.013l-.559-.83zm.121-.074c-.027.016-.073.041-.121.074l.558.83a.812.812 0 01.054-.033l-.49-.871zm.02-.011l-.02.011.491.871.02-.011-.49-.871zm.1-.054c-.059.026-.106.057-.12.066l.533.846.01-.006a.034.034 0 01.002-.002l-.016.008L37.28 1zm.219-.074a1.414 1.414 0 00-.21.07l.391.92a.423.423 0 01.063-.02L37.5.926zm-.005.002c-.007.003-.002 0 .005-.001a.378.378 0 01.05-.01l.143.989c.064-.01.12-.03.121-.03l-.319-.948zM37.49.93l.328.944L37.49.93zm.042-.014l-.037.012.318.948.003-.001-.007.002-.277-.96zm.336-.04a1.4 1.4 0 00-.307.033l.219.976a.4.4 0 01.088-.01v-1zm.156.004l-.139-.004-.034 1 .139.004.034-1zm1.083.514a1.432 1.432 0 00-1.1-.514v1c.13 0 .25.056.334.156l.766-.642zm5.366 35.346c5.359-22.197-4.846-34.731-5.367-35.348l-.764.645c.4.475 10.416 12.69 5.16 34.469l.971.234zm15.64 6.407c-.06-.223-.564-1.785-2.836-3.39-2.265-1.599-6.258-3.219-13.26-3.633l-.06.998c6.878.407 10.674 1.992 12.744 3.453 2.063 1.457 2.441 2.812 2.447 2.832l.965-.26zm.017.091l-.003-.023a.572.572 0 00-.011-.058l-.97.24a.451.451 0 01-.01-.042v-.008l.994-.109zm-.001-.008v.008c.001.002.001.002 0 0l-.993.11.003.024.99-.142zm-.008-.042c.005.02.007.036.008.042l-.99.141a.579.579 0 00.01.057l.972-.24zm.023.137l-.014-.092-.99.15.015.093.989-.15zm.015.175c0-.074-.01-.142-.015-.17l-.99.14.003.022.002.011v-.002h1zm-.003-.047v.008a.19.19 0 01.003.04h-1a.552.552 0 00.005.076l.992-.124zm0 .003v-.002l-.992.121v.002l.992-.12zm.005.073a.501.501 0 00-.005-.073l-.992.12v-.002a.326.326 0 01-.003-.045h1zm-.001.04l.001-.04h-1v-.014l.999.054zm-.002.03l.002-.03-.999-.054.001-.007.996.091zm-.005.046l.005-.046-.996-.091c0-.002 0-.002 0 0a.234.234 0 00-.002.014l.993.123zm.002-.023v-.003l-.997-.07v.003l.997.07zm-.021.167a.958.958 0 00.02-.167l-.997-.07-.001.02-.001.012v-.002l.979.207zm-.023.102c.006-.025.019-.073.027-.124l-.987-.163a.708.708 0 01-.01.047l.97.24zm-.01.033l.003-.007-.956-.292-.008.024.962.275zm-.002.01l.003-.01-.961-.275-.005.015.963.27zm-.04.118c.022-.051.035-.101.04-.117l-.963-.271-.003.012-.002.005.004-.01.925.381zm-18.82-5.005h-2.43v1h2.43v-1zM38.377 5.48c2.696 4.639 7.691 16.41 2.385 33.92l.957.29c5.404-17.834.324-29.892-2.478-34.713l-.864.503zm.932 34.066V5.23h-1v34.317h1zm-1.881 0V5.479h-1v34.068h1zm-2.793.5h2.293v-1h-2.293v1zm1.858-34.814c-2.822 4.99-7.636 16.97-2.337 34.459l.957-.29c-5.203-17.17-.469-28.867 2.25-33.677l-.87-.492zm19.634 39.023l-.005.016.956.296.004-.015-.955-.297zm.542.644l-.13-.991.13.991zm.365-2.22c-.579.514-.799 1.226-.907 1.576l.955.297c.112-.362.268-.817.616-1.125l-.664-.748zM43.476 39c9.453.491 12.575 3.188 13.495 4.363l.788-.617C56.596 41.262 53.146 38.5 43.527 38l-.052.998zm-.172 1.938c.246-.78.471-1.547.68-2.305l-.964-.266a62.615 62.615 0 01-.67 2.27l.954.301zM41.93 41.95c.63 0 1.183-.413 1.373-1.011l-.954-.302a.443.443 0 01-.42.313v1zm-7.991 0h7.99v-1h-7.99v1zm-1.373-1.011c.19.598.742 1.01 1.373 1.01v-1a.443.443 0 01-.42-.312l-.953.302zm-.633-2.148c.197.704.405 1.419.633 2.146l.954-.299c-.224-.715-.43-1.42-.623-2.116l-.964.269zm-9.074 3.656c.813-.635 1.725-1.308 3.166-1.898 1.447-.593 3.45-1.11 6.437-1.395l-.094-.995c-3.059.29-5.162.825-6.722 1.464-1.565.642-2.561 1.38-3.402 2.036l.615.788zm.167-.165l.021-.164-.99-.13c-.009.056-.016.113-.023.168l.992.126zm-.036.274c.014-.096.026-.188.036-.274l-.992-.126c-.01.088-.021.173-.034.262l.99.138zm-.2 2.237c-.025-.513.106-1.524.201-2.24L22 42.421c-.089.67-.24 1.795-.209 2.421l1-.05zm-.274-.967c-.298.406-.413.521-.48.562l.51.86c.276-.165.509-.466.776-.83l-.806-.592zm.004-.006l-.003.004.803.596.004-.005-.804-.595zm2.87-1.74c-1.602 0-2.395 1.1-2.87 1.74l.804.595c.49-.66 1.013-1.335 2.066-1.335v-1zm2.868 1.74c-.474-.64-1.268-1.74-2.868-1.74v1c1.052 0 1.575.675 2.065 1.335l.803-.595zm.003.004l-.003-.004-.803.595.003.005.803-.596zm.56.577a.183.183 0 01-.062-.007.189.189 0 01-.056-.037c-.088-.073-.21-.217-.44-.532l-.806.594c.22.298.41.543.606.706.235.196.477.276.759.276v-1zm.56-.577c-.233.315-.354.46-.442.533-.035.03-.052.035-.056.037a.184.184 0 01-.061.007v1c.282 0 .523-.08.758-.276.195-.163.385-.408.605-.705l-.803-.596zm.004-.004l-.003.004.803.596.003-.005-.803-.595zm2.87-1.74c-1.602 0-2.396 1.1-2.87 1.74l.803.595c.49-.66 1.013-1.335 2.067-1.335v-1zm2.868 1.74c-.474-.64-1.268-1.74-2.868-1.74v1c1.051 0 1.575.675 2.064 1.335l.804-.595zm.003.004l-.003-.004-.804.595.004.005.803-.596zm.56.577a.18.18 0 01-.06-.007.197.197 0 01-.056-.037c-.088-.074-.21-.218-.444-.533l-.803.596c.22.298.411.542.606.705.234.195.476.276.757.276v-1zm.56-.577c-.233.315-.355.46-.442.533a.194.194 0 01-.056.037.185.185 0 01-.062.007v1c.283 0 .524-.08.759-.276.195-.163.385-.408.605-.705l-.803-.596zm2.871-1.744c-1.605 0-2.399 1.105-2.871 1.745l.804.594c.488-.66 1.011-1.34 2.067-1.34v-1zm2.868 1.74c-.474-.64-1.267-1.74-2.867-1.74v1c1.05 0 1.574.675 2.064 1.335l.803-.595zm.004.004l-.004-.004-.803.595.003.005.803-.596zm.562.579a.186.186 0 01-.062-.007.195.195 0 01-.057-.037c-.088-.073-.21-.218-.443-.534l-.804.594c.22.3.411.545.607.708.235.196.477.276.76.276v-1zm.56-.576c-.233.315-.355.46-.443.533a.193.193 0 01-.055.036.183.183 0 01-.062.007v1c.282 0 .524-.08.758-.276.195-.163.385-.407.606-.705l-.804-.595zm.004-.005l-.004.005.804.595.003-.004-.803-.596zm2.87-1.74c-1.602 0-2.396 1.1-2.87 1.74l.803.596c.49-.66 1.013-1.336 2.067-1.336v-1zm2.867 1.74c-.474-.64-1.267-1.74-2.867-1.74v1c1.05 0 1.574.675 2.064 1.336l.803-.596zm.004.005l-.004-.005-.803.596.003.004.804-.595zm.56.576a.187.187 0 01-.062-.007.195.195 0 01-.057-.037c-.087-.073-.209-.217-.44-.531l-.805.593c.22.298.41.543.605.706.235.196.477.276.759.276v-1zm.562-.578c-.233.316-.355.46-.443.534a.196.196 0 01-.057.037.185.185 0 01-.062.007v1c.282 0 .524-.08.759-.276.196-.163.386-.409.607-.708l-.804-.594zm2.871-1.745c-1.603 0-2.399 1.105-2.871 1.745l.804.594c.488-.66 1.014-1.34 2.067-1.34v-1zm2.87 1.74c-.474-.64-1.267-1.74-2.87-1.74v1c1.054 0 1.578.675 2.067 1.335l.803-.595zm.004.004l-.004-.004-.803.595.003.005.804-.596zm.56.577a.181.181 0 01-.06-.007.199.199 0 01-.057-.037c-.088-.074-.21-.218-.443-.533l-.804.596c.221.298.412.542.607.705.234.195.475.276.757.276v-1zm.143.483l-.201-.458h.001l.002-.001.004-.002.007-.003a.4.4 0 01.065-.02c.011-.002.006 0-.021 0v1a1.114 1.114 0 00.28-.035.63.63 0 00.05-.017l.008-.003.004-.002h.002v-.001l-.2-.458zm-.306-.612a8.186 8.186 0 01-.115.344l-.003.006.01-.018a.4.4 0 01.035-.045l.76.65a.754.754 0 00.117-.2c.021-.048.04-.102.058-.151.035-.1.07-.211.094-.29l-.956-.296z" fill="#222532"/><path d="M7.288 31.136c-.12-.145-1.21-1.405-2.608-1.405-.646 0-1.57.268-2.297 1.542l-.812 1.424h7.02l-1.303-1.561z" fill="#fff" stroke="#222532"/><path fill-rule="evenodd" clip-rule="evenodd" d="M5.464 34.575l.966.102-.122.973c-.355 2.63-3.102 5.404-3.22 5.522l-1.272 1.272-.315-1.78c-.374-2.093-.108-3.702.788-4.782 1.253-1.511 3.175-1.307 3.175-1.307zM3.735 37.1a2.05 2.05 0 00-.378.752c.2-.301.392-.617.557-.935a1.64 1.64 0 00-.179.183z" fill="#fff"/><path d="M6.43 34.677l.497.062.063-.506-.507-.053-.053.497zm-.966-.102l-.053.497.053-.497zm.844 1.075l.496.067v-.005l-.496-.062zm-3.22 5.522l.354.354.002-.002-.355-.352zm-1.272 1.272l-.492.087.167.945.679-.678-.354-.354zm-.315-1.78l.493-.087-.493.087zm.788-4.782l.385.32-.385-.32zm1.068 1.97l-.48-.14-.054.186.085.174.449-.22zm.378-.752l.384.32.003-.003-.387-.317zm-.378.752l-.45.22.385.783.481-.727-.416-.276zm.557-.935l.444.23-.777-.603.333.373zm2.569-2.738l-.967-.102-.105.995.967.102.105-.995zm.321 1.533l.123-.973-.993-.125-.122.973.992.125zm-3.36 5.812c.067-.068.804-.812 1.571-1.88.759-1.054 1.594-2.487 1.789-3.927l-.991-.134c-.161 1.19-.876 2.458-1.61 3.478-.723 1.006-1.419 1.708-1.47 1.76l.71.703zM2.17 42.798l1.272-1.272-.707-.707-1.272 1.272.707.707zm-1.161-2.046l.315 1.78.985-.175-.315-1.78-.985.175zm.895-5.189c-1.03 1.241-1.281 3.026-.895 5.19l.984-.176c-.361-2.024-.081-3.457.68-4.375l-.769-.639zm3.56-.988l.052-.498h-.012l-.023-.003a3.91 3.91 0 00-.348-.008c-.225.006-.537.03-.892.107-.71.154-1.618.524-2.337 1.39l.77.638c.535-.645 1.215-.929 1.778-1.05a3.755 3.755 0 01.903-.083l.048.003.01.001h-.001l.052-.497zm-1.627 3.417a1.55 1.55 0 01.282-.571l-.767-.642a2.548 2.548 0 00-.475.933l.96.28zm-.031-.36l-.898.44.898-.44zm-.336-.945a9.679 9.679 0 01-.53.889l.833.552c.207-.31.41-.642.585-.981l-.888-.46zm.652.73c.034-.041.074-.082.125-.127l-.666-.746a2.126 2.126 0 00-.232.239l.773.634z" fill="#222532"/><path fill-rule="evenodd" clip-rule="evenodd" d="M12.707 29.291c0 .992-.802 1.8-1.785 1.8a1.793 1.793 0 01-1.783-1.8c0-.992.8-1.799 1.783-1.799.985 0 1.785.807 1.785 1.8zm-1.687 0a.1.1 0 00-.098-.1.098.098 0 00-.097.1c0 .11.195.11.195 0z" fill="#fff"/><path d="M10.922 31.59a2.295 2.295 0 002.285-2.299h-1c0 .72-.582 1.3-1.285 1.3v1zm-2.283-2.299a2.293 2.293 0 002.283 2.3v-1a1.293 1.293 0 01-1.283-1.3h-1zm2.283-2.299a2.293 2.293 0 00-2.283 2.3h1c0-.72.58-1.3 1.283-1.3v-1zm2.285 2.3a2.293 2.293 0 00-2.285-2.3v1c.705 0 1.285.58 1.285 1.3h1zm-2.285.4a.4.4 0 01-.402-.4h1a.6.6 0 00-.598-.6v1zm.403-.4c0 .2-.161.4-.403.4v-1a.598.598 0 00-.597.6h1zm-.805 0c0-.143.072-.267.171-.34a.388.388 0 01.232-.079c.06 0 .147.016.232.079.098.073.17.197.17.34h-1c0 .196.097.36.232.461a.613.613 0 00.732 0 .574.574 0 00.231-.462h-1z" fill="#222532"/></svg>