<svg width="11" height="14" viewBox="0 0 11 14" fill="none" xmlns="http://www.w3.org/2000/svg">
<path fill-rule="evenodd" clip-rule="evenodd" d="M5.43371 0.294922C6.65895 0.294922 7.84855 0.708644 8.78651 1.45997V1.45994C10.0117 2.44078 10.7324 3.83542 10.8196 5.38596C10.903 6.9168 10.3309 8.41455 9.25058 9.4949L5.66929 13.0293C5.53057 13.1668 5.28996 13.1656 5.15123 13.0281L1.62054 9.49744C0.537732 8.41464 -0.0355973 6.91567 0.0491121 5.38599C0.135038 3.83551 0.856921 2.44088 2.08091 1.45997C3.01763 0.708644 4.20849 0.294922 5.43371 0.294922ZM3.02748 5.68433C3.02748 7.01144 4.10658 8.09058 5.43371 8.09058C6.76081 8.09058 7.84117 7.01147 7.83995 5.68433C7.83995 4.35721 6.76085 3.27808 5.43371 3.27808C4.10661 3.27808 3.02748 4.35718 3.02748 5.68433Z" fill="white"/>
<path d="M5.43371 4.51172C4.78672 4.51172 4.26126 5.03714 4.26126 5.68408C4.26126 6.33103 4.78672 6.85645 5.43371 6.85645C6.0807 6.85645 6.60615 6.33103 6.60615 5.68408C6.60615 5.03714 6.0807 4.51172 5.43371 4.51172Z" fill="white"/>
</svg>
