<svg width="467" height="347" viewBox="0 0 467 347" fill="none" xmlns="http://www.w3.org/2000/svg">
<path fill-rule="evenodd" clip-rule="evenodd" d="M14 32H182V223H14V32Z" fill="#4AF6CD"/>
<path opacity="0.0654018" d="M73.6 44.4C92.1333 44.4 108.067 50.2667 121.4 62L103.2 81C98.1333 77.4 93.5333 74.8 89.4 73.2C85.4 71.4667 80.8 70.6 75.6 70.6C65.6 70.6 57.7333 74.4667 52 82.2C46.4 89.9333 43.6 101.733 43.6 117.6C43.6 129.2 44.5333 138.4 46.4 145.2C48.2667 151.867 51.0667 156.667 54.8 159.6C58.6667 162.533 63.6 164 69.6 164C75.6 164 81.0667 162.733 86 160.2V131.6H70.2L66.6 106.2H121.8V175.4C114.6 180.2 106.467 183.933 97.4 186.6C88.3333 189.267 79.4 190.6 70.6 190.6C27.1333 190.6 5.4 166.2 5.4 117.4C5.4 102.2 8.33333 89.1333 14.2 78.2C20.2 67.1333 28.3333 58.7333 38.6 53C48.8667 47.2667 60.5333 44.4 73.6 44.4ZM198.883 44.4C219.016 44.4 234.683 50.8 245.883 63.6C257.083 76.4 262.683 94.3333 262.683 117.4C262.683 132.467 260.149 145.533 255.083 156.6C250.149 167.533 242.883 175.933 233.283 181.8C223.683 187.667 212.216 190.6 198.883 190.6C178.749 190.6 163.083 184.2 151.883 171.4C140.816 158.6 135.283 140.6 135.283 117.4C135.283 102.333 137.749 89.3333 142.683 78.4C147.749 67.4667 155.016 59.0667 164.483 53.2C174.083 47.3333 185.549 44.4 198.883 44.4ZM198.883 71C190.216 71 183.816 74.6 179.683 81.8C175.683 89 173.683 100.867 173.683 117.4C173.683 133.933 175.749 145.867 179.883 153.2C184.016 160.4 190.349 164 198.883 164C207.683 164 214.083 160.4 218.083 153.2C222.083 146 224.083 134.067 224.083 117.4C224.083 100.867 222.083 89 218.083 81.8C214.083 74.6 207.683 71 198.883 71ZM58.8 200.4C69.3333 200.4 78.6 201.933 86.6 205C94.7333 208.067 102 212.667 108.4 218.8L91.8 238.4C82.2 230.8 72.1333 227 61.6 227C56.1333 227 51.9333 228.067 49 230.2C46.2 232.2 44.8 235.067 44.8 238.8C44.8 241.467 45.5333 243.667 47 245.4C48.4667 247.133 50.9333 248.8 54.4 250.4C57.8667 252 63.3333 254 70.8 256.4C85.0667 260.933 95.4667 266.667 102 273.6C108.667 280.4 112 289.867 112 302C112 310.8 109.733 318.6 105.2 325.4C100.667 332.067 94.0667 337.267 85.4 341C76.8667 344.733 66.8 346.6 55.2 346.6C33.0667 346.6 15 339.867 1 326.4L19.2 306.2C30.2667 315.267 41.8 319.8 53.8 319.8C60.0667 319.8 64.9333 318.467 68.4 315.8C71.8667 313 73.6 309.333 73.6 304.8C73.6 301.6 72.9333 299 71.6 297C70.2667 294.867 67.8667 293 64.4 291.4C61.0667 289.667 56.1333 287.8 49.6 285.8C33.8667 280.867 22.8 274.933 16.4 268C10 261.067 6.8 252.333 6.8 241.8C6.8 233.533 9 226.267 13.4 220C17.9333 213.733 24.1333 208.933 32 205.6C40 202.133 48.9333 200.4 58.8 200.4ZM236.816 296.4C236.816 306 234.682 314.6 230.416 322.2C226.282 329.8 220.016 335.8 211.616 340.2C203.216 344.467 192.949 346.6 180.816 346.6C162.416 346.6 148.482 342.133 139.016 333.2C129.549 324.133 124.816 311.867 124.816 296.4V204H161.816V295.2C161.816 303.6 163.282 309.8 166.216 313.8C169.282 317.667 174.149 319.6 180.816 319.6C187.482 319.6 192.282 317.6 195.216 313.6C198.149 309.6 199.616 303.467 199.616 295.2V204H236.816V296.4ZM303.508 291.8H293.308V343H256.308V204H304.508C324.108 204 338.708 207.533 348.308 214.6C358.041 221.667 362.908 232.533 362.908 247.2C362.908 256 360.841 263.333 356.708 269.2C352.708 275.067 346.241 280.333 337.308 285L371.908 343H330.708L303.508 291.8ZM293.308 266.6H305.708C318.508 266.6 324.908 260.133 324.908 247.2C324.908 241.2 323.108 236.8 319.508 234C316.041 231.2 310.774 229.8 303.708 229.8H293.308V266.6ZM380.331 343V204H465.731L461.931 230.2H417.331V263.6H456.531V289.8H417.331V343H380.331Z" fill="white"/>
<path d="M74.22 187.36C74.22 184.2 74.68 181.42 75.6 179.02C76.52 176.58 77.9 174.4 79.74 172.48L85.62 177.46C83.34 180.34 82.2 183.36 82.2 186.52C82.2 188.16 82.52 189.42 83.16 190.3C83.76 191.14 84.62 191.56 85.74 191.56C86.54 191.56 87.2 191.34 87.72 190.9C88.24 190.46 88.74 189.72 89.22 188.68C89.7 187.64 90.3 186 91.02 183.76C92.38 179.48 94.1 176.36 96.18 174.4C98.22 172.4 101.06 171.4 104.7 171.4C107.34 171.4 109.68 172.08 111.72 173.44C113.72 174.8 115.28 176.78 116.4 179.38C117.52 181.94 118.08 184.96 118.08 188.44C118.08 195.08 116.06 200.5 112.02 204.7L105.96 199.24C108.68 195.92 110.04 192.46 110.04 188.86C110.04 186.98 109.64 185.52 108.84 184.48C108 183.44 106.9 182.92 105.54 182.92C104.58 182.92 103.8 183.12 103.2 183.52C102.56 183.92 102 184.64 101.52 185.68C101 186.68 100.44 188.16 99.84 190.12C98.36 194.84 96.58 198.16 94.5 200.08C92.42 202 89.8 202.96 86.64 202.96C84.16 202.96 81.98 202.3 80.1 200.98C78.22 199.62 76.78 197.76 75.78 195.4C74.74 193 74.22 190.32 74.22 187.36ZM103.02 133.955C105.9 133.955 108.48 134.595 110.76 135.875C113.04 137.115 114.84 138.995 116.16 141.515C117.44 144.035 118.08 147.115 118.08 150.755C118.08 156.275 116.74 160.455 114.06 163.295C111.34 166.135 107.66 167.555 103.02 167.555H75.3V156.455H102.66C105.18 156.455 107.04 156.015 108.24 155.135C109.4 154.215 109.98 152.755 109.98 150.755C109.98 148.755 109.38 147.315 108.18 146.435C106.98 145.555 105.14 145.115 102.66 145.115H75.3V133.955H103.02ZM101.64 113.948V117.008H117V128.108H75.3V113.648C75.3 107.768 76.36 103.388 78.48 100.508C80.6 97.5877 83.86 96.1277 88.26 96.1277C90.9 96.1277 93.1 96.7477 94.86 97.9877C96.62 99.1877 98.2 101.128 99.6 103.808L117 93.4277V105.788L101.64 113.948ZM94.08 117.008V113.288C94.08 109.448 92.14 107.528 88.26 107.528C86.46 107.528 85.14 108.068 84.3 109.148C83.46 110.188 83.04 111.768 83.04 113.888V117.008H94.08ZM117 90.9006H75.3L75.3 65.2806L83.16 66.4206V79.8006H93.18V68.0406H101.04V79.8006H117V90.9006Z" fill="white"/>
<path d="M74.22 299.92C74.22 294.36 75.98 289.58 79.5 285.58L85.2 291.04C84.12 292.56 83.34 293.94 82.86 295.18C82.34 296.38 82.08 297.76 82.08 299.32C82.08 302.32 83.24 304.68 85.56 306.4C87.88 308.08 91.42 308.92 96.18 308.92C99.66 308.92 102.42 308.64 104.46 308.08C106.46 307.52 107.9 306.68 108.78 305.56C109.66 304.4 110.1 302.92 110.1 301.12C110.1 299.32 109.72 297.68 108.96 296.2H100.38V300.94L92.76 302.02V285.46H113.52C114.96 287.62 116.08 290.06 116.88 292.78C117.68 295.5 118.08 298.18 118.08 300.82C118.08 313.86 110.76 320.38 96.12 320.38C91.56 320.38 87.64 319.5 84.36 317.74C81.04 315.94 78.52 313.5 76.8 310.42C75.08 307.34 74.22 303.84 74.22 299.92ZM74.22 262.335C74.22 256.295 76.14 251.595 79.98 248.235C83.82 244.875 89.2 243.195 96.12 243.195C100.64 243.195 104.56 243.955 107.88 245.475C111.16 246.955 113.68 249.135 115.44 252.015C117.2 254.895 118.08 258.335 118.08 262.335C118.08 268.375 116.16 273.075 112.32 276.435C108.48 279.755 103.08 281.415 96.12 281.415C91.6 281.415 87.7 280.675 84.42 279.195C81.14 277.675 78.62 275.495 76.86 272.655C75.1 269.775 74.22 266.335 74.22 262.335ZM82.2 262.335C82.2 264.935 83.28 266.855 85.44 268.095C87.6 269.295 91.16 269.895 96.12 269.895C101.08 269.895 104.66 269.275 106.86 268.035C109.02 266.795 110.1 264.895 110.1 262.335C110.1 259.695 109.02 257.775 106.86 256.575C104.7 255.375 101.12 254.775 96.12 254.775C91.16 254.775 87.6 255.375 85.44 256.575C83.28 257.775 82.2 259.695 82.2 262.335Z" fill="white"/>
<rect x="97" y="233" width="19.9999" height="1" transform="rotate(-90 97 233)" fill="white"/>
</svg>
