<svg width="61" height="48" viewBox="0 0 61 48" fill="none" xmlns="http://www.w3.org/2000/svg">
<path fill-rule="evenodd" clip-rule="evenodd" d="M59.5976 43.8612C59.5882 43.8897 59.5764 43.9182 59.5623 43.9443L59.5628 43.9439C59.5487 43.9724 59.5345 43.9985 59.5063 44.0175C59.4953 44.0349 59.4844 44.0502 59.4734 44.0655L59.4569 44.0887C59.4381 44.1124 59.417 44.1385 59.3958 44.1623C59.377 44.1812 59.3582 44.2002 59.337 44.2192C59.3135 44.243 59.2876 44.2643 59.2618 44.2833C59.2406 44.2975 59.2147 44.3142 59.1912 44.3284C59.163 44.3426 59.1371 44.3592 59.1065 44.3735C59.0867 44.3835 59.0657 44.3912 59.0444 44.3989C59.0354 44.4022 59.0263 44.4056 59.0172 44.4091C59.0109 44.4115 59.0049 44.4141 58.9989 44.4167L58.9865 44.422C58.9784 44.4254 58.97 44.4284 58.9607 44.4304C58.9513 44.4328 58.9443 44.4304 58.9349 44.4328C58.862 44.4518 58.7867 44.4637 58.7091 44.4637C58.6033 44.4637 58.5656 44.4803 58.5656 44.4803C58.5224 44.5308 58.4439 44.7836 58.3941 44.944L58.3941 44.9441L58.3941 44.9442L58.3893 44.9597C58.2058 45.553 57.8225 46.7871 56.2727 46.7871C54.9471 46.7871 54.2886 45.8989 53.8068 45.249L53.8034 45.2444C53.3518 44.6297 53.1802 44.4636 52.8415 44.4636C52.5029 44.4636 52.3335 44.6297 51.8796 45.242L51.8763 45.2465C51.3945 45.8964 50.7359 46.7846 49.408 46.7846C48.0823 46.7846 47.4238 45.8964 46.942 45.2466L46.9386 45.242C46.4871 44.6297 46.3154 44.4636 45.9768 44.4636C45.6405 44.4636 45.4688 44.6298 45.0149 45.2444C44.5351 45.8947 43.8742 46.7871 42.5455 46.7871C41.2175 46.7871 40.5591 45.8989 40.0773 45.249L40.0739 45.2444C39.6223 44.6322 39.4506 44.466 39.112 44.466C38.7733 44.466 38.604 44.6321 38.1501 45.2444C37.6703 45.8947 37.0118 46.7871 35.6808 46.7871C34.3551 46.7871 33.6966 45.8989 33.2148 45.249L33.2114 45.2444C32.7599 44.6322 32.5882 44.466 32.2496 44.466C31.9133 44.466 31.7416 44.6322 31.2877 45.2469C30.8079 45.8971 30.1471 46.7895 28.8184 46.7895C27.4927 46.7895 26.8342 45.9013 26.3524 45.2514L26.349 45.2469C25.8975 44.6346 25.7258 44.4685 25.3871 44.4685C25.0508 44.4685 24.8792 44.6346 24.4253 45.2493C23.9455 45.8996 23.2846 46.7919 21.9559 46.7919C21.5349 46.7919 21.1516 46.6187 20.8812 46.3054C20.225 45.5508 20.3567 44.2645 20.6272 42.2282L20.6318 42.1929C20.7284 41.4562 20.8757 40.3327 20.8271 39.7861C19.0704 40.1324 16.5775 43.6855 15.2841 46.2699C15.1242 46.5927 14.7973 46.7921 14.4445 46.7921C14.4257 46.7921 14.4069 46.7921 14.3881 46.7897C14.0142 46.7683 13.6873 46.5239 13.5603 46.1679C13.3439 45.5646 11.4955 40.1942 13.4168 37.2229C14.1365 36.1122 15.3029 35.4738 16.7939 35.3765C18.0897 35.2911 18.6824 34.9398 18.7952 34.6621C18.8705 34.477 18.7506 34.1614 18.4872 33.86C17.7863 33.0555 16.2201 32.4099 14.4375 32.8988C11.9657 33.5732 9.19539 36.9171 8.26174 40.3535C7.93483 41.5615 7.58204 43.7971 8.91784 45.1807C9.28001 45.558 9.2706 46.1585 8.89903 46.5239C8.5251 46.8894 7.9325 46.8823 7.56798 46.505C6.09344 44.9791 5.69599 42.6153 6.4462 39.8529C7.41729 36.2739 10.4888 32.0092 13.9458 31.067C16.5209 30.3646 18.7903 31.3328 19.9004 32.6073C20.6694 33.4878 20.8998 34.5012 20.5353 35.3887C20.2179 36.1601 19.3336 37.1141 16.916 37.2731C16.0153 37.3325 15.3874 37.6576 14.9947 38.2628C14.2022 39.4874 14.3856 41.6589 14.7454 43.3914C16.1565 41.1059 18.6329 37.7857 21.1963 37.8664C21.6102 37.8806 21.9841 38.061 22.2475 38.3767C22.5109 38.6899 22.6402 39.0957 22.6873 39.5989C24.4181 38.4431 26.9442 37.2992 31.9298 36.7913C26.5253 14.6964 36.685 2.25822 37.1459 1.71C37.1499 1.70603 37.1538 1.7029 37.1575 1.6999C37.1628 1.69571 37.1677 1.69179 37.1718 1.68626C37.2 1.65541 37.2282 1.6293 37.2588 1.6032C37.2776 1.58421 37.2964 1.5676 37.3176 1.55336C37.3465 1.53392 37.3754 1.51766 37.4056 1.50068L37.4258 1.48928C37.4446 1.47742 37.4634 1.46555 37.4846 1.45606C37.5293 1.43707 37.574 1.42283 37.621 1.41096C37.632 1.40938 37.6429 1.40569 37.6539 1.402L37.6539 1.40199C37.6594 1.40014 37.6649 1.3983 37.6704 1.39673C37.7339 1.38249 37.7997 1.37537 37.8679 1.37537L38.0067 1.38011C38.2842 1.38011 38.5452 1.50115 38.7239 1.71474C39.1849 2.26032 49.2949 14.635 43.9871 36.6229C57.8667 37.4439 59.5647 43.033 59.6305 43.2774C59.6317 43.2822 59.6323 43.2875 59.6329 43.2929C59.6332 43.2955 59.6335 43.2982 59.6338 43.3008C59.6342 43.3034 59.6346 43.3059 59.6352 43.3083L59.6493 43.4008C59.654 43.434 59.6587 43.4673 59.6587 43.5005C59.6587 43.5053 59.6593 43.51 59.6599 43.5148L59.6601 43.5165C59.6606 43.5207 59.6611 43.5248 59.6611 43.529C59.6611 43.5334 59.661 43.5378 59.6607 43.542C59.6605 43.5459 59.6602 43.5498 59.6599 43.5536C59.659 43.5634 59.6577 43.5731 59.6564 43.5836L59.6562 43.5868C59.6539 43.6191 59.6515 43.6535 59.6446 43.6856C59.6399 43.7141 59.6329 43.7426 59.6258 43.7711C59.6242 43.7763 59.6227 43.7815 59.6212 43.7867C59.62 43.7909 59.6188 43.795 59.6177 43.7992C59.6117 43.8205 59.6058 43.8414 59.5976 43.8612ZM38.8081 39.5465H41.2398C46.5949 21.8735 41.5573 9.95952 38.8081 5.22961V39.5465ZM36.9267 5.47864V39.5465H34.6338C29.3824 22.2173 34.1564 10.3792 36.9267 5.47864ZM56.599 44.4199L56.6038 44.4045L56.6031 44.4046C56.7136 44.0486 56.9017 43.4648 57.365 43.0542C56.3235 41.7252 53.0381 38.996 43.5018 38.5C43.2948 39.2523 43.0714 40.0141 42.8269 40.7878C42.7022 41.1817 42.34 41.4499 41.9308 41.4499H33.9399C33.5307 41.4499 33.1686 41.1817 33.0439 40.7878C32.8181 40.0663 32.6112 39.3567 32.416 38.6566C26.3696 39.2309 24.206 40.7617 22.5528 42.0527C22.5454 42.1083 22.5384 42.1635 22.5314 42.2192C22.5204 42.3062 22.5092 42.3944 22.4963 42.487C22.4046 43.18 22.2635 44.2479 22.2917 44.8175C22.4634 44.7154 22.6375 44.5066 22.9197 44.1221L22.923 44.1176C23.4048 43.4677 24.0634 42.5795 25.3913 42.5795C26.717 42.5795 27.3755 43.4677 27.8573 44.1175L27.8607 44.1221C28.3122 44.7344 28.4839 44.9005 28.8225 44.9005C29.1612 44.9005 29.3305 44.7344 29.7844 44.1221L29.7878 44.1176C30.2696 43.4677 30.9281 42.5795 32.2561 42.5795C33.5818 42.5795 34.2402 43.4677 34.722 44.1175L34.7254 44.1221C35.1793 44.7344 35.351 44.9005 35.6873 44.9005C36.026 44.9005 36.1953 44.7344 36.6492 44.1221C37.129 43.4719 37.7875 42.5795 39.1185 42.5795C40.4442 42.5795 41.1027 43.4677 41.5845 44.1175L41.5879 44.1221C42.0418 44.7368 42.2134 44.903 42.5521 44.903C42.8907 44.903 43.0601 44.7369 43.514 44.1246L43.5173 44.12C43.9991 43.4702 44.6577 42.5819 45.9856 42.5819C47.3113 42.5819 47.9698 43.4701 48.4516 44.12L48.455 44.1246C48.9065 44.7368 49.0782 44.903 49.4169 44.903C49.7555 44.903 49.9272 44.7368 50.3811 44.1221C50.8609 43.4719 51.5217 42.5795 52.8504 42.5795C54.1784 42.5795 54.8369 43.4677 55.3187 44.1176L55.3221 44.1221C55.776 44.7344 55.9477 44.9005 56.284 44.9005C56.3898 44.9005 56.4274 44.8839 56.4274 44.8839C56.4707 44.8333 56.5493 44.5802 56.599 44.4199Z" fill="white"/>
<path d="M59.5623 43.9443L59.1225 43.7065L59.8802 44.3303L59.5623 43.9443ZM59.5976 43.8612L59.1354 43.6704L59.1285 43.6872L59.1228 43.7044L59.5976 43.8612ZM59.5628 43.9439L60.0108 44.1659L59.2449 43.558L59.5628 43.9439ZM59.5063 44.0175L59.2272 43.6026L59.1397 43.6615L59.0834 43.7508L59.5063 44.0175ZM59.4734 44.0655L59.0671 43.774L59.0655 43.7763L59.4734 44.0655ZM59.4569 44.0887L59.8488 44.3993L59.8571 44.3888L59.8648 44.378L59.4569 44.0887ZM59.3958 44.1623L59.751 44.5142L59.7602 44.5049L59.7689 44.4951L59.3958 44.1623ZM59.337 44.2192L59.0032 43.847L58.9922 43.8568L58.9818 43.8673L59.337 44.2192ZM59.2618 44.2833L59.5408 44.6982L59.5493 44.6924L59.5576 44.6864L59.2618 44.2833ZM59.1912 44.3284L59.4165 44.7748L59.4337 44.7661L59.4501 44.7561L59.1912 44.3284ZM59.1065 44.3735L58.8955 43.9202L58.8883 43.9235L58.8813 43.9271L59.1065 44.3735ZM59.0444 44.3989L59.2158 44.8686L59.2158 44.8686L59.0444 44.3989ZM59.0172 44.4091L59.194 44.8768L59.1981 44.8752L59.0172 44.4091ZM58.9989 44.4167L59.1959 44.8763L59.1996 44.8747L58.9989 44.4167ZM58.9865 44.422L59.1763 44.8847L59.1835 44.8816L58.9865 44.422ZM58.9607 44.4304L58.8512 43.9424L58.8384 43.9456L58.9607 44.4304ZM58.9349 44.4328L58.8124 43.948L58.8088 43.949L58.9349 44.4328ZM58.5656 44.4803L58.3637 44.0229L58.2597 44.0688L58.1858 44.1552L58.5656 44.4803ZM58.3941 44.944L58.8686 45.1021L58.8717 45.0922L58.3941 44.944ZM58.3941 44.9441L57.9198 44.786L57.9163 44.7963L57.9133 44.8068L58.3941 44.9441ZM58.3941 44.9442L58.8717 45.0925L58.8748 45.0816L58.3941 44.9442ZM58.3893 44.9597L57.9117 44.8114L57.9116 44.812L58.3893 44.9597ZM53.8068 45.249L54.2085 44.9512L54.2084 44.9511L53.8068 45.249ZM53.8034 45.2444L53.4004 45.5405L53.4018 45.5423L53.8034 45.2444ZM51.8796 45.242L51.478 44.9442L51.4779 44.9443L51.8796 45.242ZM51.8763 45.2465L52.2779 45.5443L52.278 45.5442L51.8763 45.2465ZM46.942 45.2466L46.5403 45.5442L46.5404 45.5444L46.942 45.2466ZM46.9386 45.242L46.5362 45.5388L46.5369 45.5396L46.9386 45.242ZM45.0149 45.2444L44.6127 44.9474L44.6125 44.9476L45.0149 45.2444ZM40.0773 45.249L39.6756 45.5467L39.6756 45.5468L40.0773 45.249ZM40.0739 45.2444L39.6715 45.5412L39.6722 45.5422L40.0739 45.2444ZM38.1501 45.2444L37.7484 44.9467L37.7478 44.9476L38.1501 45.2444ZM33.2148 45.249L33.6165 44.9512L33.6164 44.9512L33.2148 45.249ZM33.2114 45.2444L32.809 45.5412L32.8098 45.5423L33.2114 45.2444ZM31.2877 45.2469L30.8855 44.9499L30.8853 44.95L31.2877 45.2469ZM26.3524 45.2514L26.7541 44.9537L26.7541 44.9536L26.3524 45.2514ZM26.349 45.2469L25.9466 45.5436L25.9474 45.5447L26.349 45.2469ZM24.4253 45.2493L24.023 44.9523L24.0229 44.9524L24.4253 45.2493ZM20.8812 46.3054L21.2597 45.9787L21.2585 45.9773L20.8812 46.3054ZM20.6272 42.2282L21.1228 42.294L21.1229 42.2932L20.6272 42.2282ZM20.6318 42.1929L20.136 42.1279L20.136 42.128L20.6318 42.1929ZM20.8271 39.7861L21.3251 39.7418L21.2759 39.188L20.7304 39.2956L20.8271 39.7861ZM15.2841 46.2699L14.837 46.0462L14.8361 46.048L15.2841 46.2699ZM14.3881 46.7897L14.4507 46.2936L14.4337 46.2915L14.4166 46.2905L14.3881 46.7897ZM13.5603 46.1679L14.0312 45.9999L14.031 45.9991L13.5603 46.1679ZM13.4168 37.2229L12.9972 36.951L12.997 36.9514L13.4168 37.2229ZM16.7939 35.3765L16.8265 35.8754L16.8268 35.8754L16.7939 35.3765ZM18.7952 34.6621L19.2584 34.8504L19.2584 34.8504L18.7952 34.6621ZM18.4872 33.86L18.1101 34.1884L18.1107 34.189L18.4872 33.86ZM14.4375 32.8988L14.5691 33.3812L14.5697 33.381L14.4375 32.8988ZM8.26174 40.3535L7.77923 40.2224L7.7791 40.2229L8.26174 40.3535ZM8.91784 45.1807L9.27858 44.8345L9.27755 44.8334L8.91784 45.1807ZM8.89903 46.5239L9.24852 46.8815L9.24965 46.8804L8.89903 46.5239ZM7.56798 46.505L7.92759 46.1576L7.92753 46.1575L7.56798 46.505ZM6.4462 39.8529L6.92872 39.9839L6.92875 39.9838L6.4462 39.8529ZM13.9458 31.067L14.0773 31.5494L14.0774 31.5494L13.9458 31.067ZM19.9004 32.6073L19.5233 32.9357L19.5238 32.9362L19.9004 32.6073ZM20.5353 35.3887L20.9977 35.579L20.9978 35.5787L20.5353 35.3887ZM16.916 37.2731L16.8832 36.7742L16.8832 36.7742L16.916 37.2731ZM14.9947 38.2628L14.5753 37.9906L14.5749 37.9911L14.9947 38.2628ZM14.7454 43.3914L14.2559 43.493L14.5112 44.7225L15.1709 43.654L14.7454 43.3914ZM21.1963 37.8664L21.2135 37.3667L21.212 37.3666L21.1963 37.8664ZM22.2475 38.3767L21.8636 38.697L21.8648 38.6984L22.2475 38.3767ZM22.6873 39.5989L22.1894 39.6454L22.2675 40.4804L22.9649 40.0147L22.6873 39.5989ZM31.9298 36.7913L31.9805 37.2887L32.552 37.2305L32.4155 36.6725L31.9298 36.7913ZM37.1459 1.71L36.7908 1.35803L36.7764 1.37256L36.7632 1.38823L37.1459 1.71ZM37.1575 1.6999L37.4695 2.09061L37.4696 2.09061L37.1575 1.6999ZM37.1718 1.68626L36.8029 1.3488L36.7857 1.36758L36.7705 1.38801L37.1718 1.68626ZM37.2588 1.6032L37.5835 1.98343L37.5993 1.96992L37.614 1.95514L37.2588 1.6032ZM37.3176 1.55336L37.0385 1.1385L37.0385 1.13851L37.3176 1.55336ZM37.4056 1.50068L37.6508 1.93645L37.6513 1.93613L37.4056 1.50068ZM37.4258 1.48928L37.6715 1.92473L37.6822 1.91872L37.6925 1.91219L37.4258 1.48928ZM37.4846 1.45606L37.289 0.995784L37.28 0.999841L37.4846 1.45606ZM37.621 1.41096L37.5496 0.916081L37.5239 0.919793L37.4987 0.926156L37.621 1.41096ZM37.6539 1.402L37.8133 1.87592L37.8175 1.87448L37.6539 1.402ZM37.6539 1.40199L37.4946 0.928048L37.4903 0.929509L37.6539 1.40199ZM37.6704 1.39673L37.5609 0.908845L37.5463 0.912129L37.5319 0.916285L37.6704 1.39673ZM37.8679 1.37537L37.885 0.875658L37.8765 0.875366H37.8679V1.37537ZM38.0067 1.38011L37.9896 1.87982L37.9981 1.88011H38.0067V1.38011ZM38.7239 1.71474L38.3405 2.03562L38.342 2.03742L38.7239 1.71474ZM43.9871 36.6229L43.5011 36.5056L43.3608 37.0867L43.9576 37.122L43.9871 36.6229ZM59.6305 43.2774L60.1159 43.157L60.1133 43.1474L59.6305 43.2774ZM59.6329 43.2929L60.1299 43.2385L60.1299 43.2382L59.6329 43.2929ZM59.6338 43.3008L60.1288 43.2304L60.1288 43.2299L59.6338 43.3008ZM59.6352 43.3083L60.1295 43.2329L60.1261 43.2103L60.1206 43.1881L59.6352 43.3083ZM59.6493 43.4008L60.1444 43.3307L60.1436 43.3255L59.6493 43.4008ZM59.6599 43.5148L60.1563 43.4544L60.1561 43.4528L59.6599 43.5148ZM59.6601 43.5165L59.1638 43.5769L59.1638 43.5769L59.6601 43.5165ZM59.6607 43.542L59.1615 43.5151L59.1614 43.5153L59.6607 43.542ZM59.6599 43.5536L59.162 43.5077L59.162 43.5078L59.6599 43.5536ZM59.6564 43.5836L59.1602 43.522L59.1586 43.5352L59.1576 43.5484L59.6564 43.5836ZM59.6562 43.5868L60.1549 43.622L60.1549 43.622L59.6562 43.5868ZM59.6446 43.6856L59.1555 43.5817L59.1532 43.5929L59.1513 43.6042L59.6446 43.6856ZM59.6258 43.7711L60.104 43.9171L60.1079 43.9043L60.1111 43.8913L59.6258 43.7711ZM59.6212 43.7867L59.1405 43.6492L59.1405 43.6492L59.6212 43.7867ZM59.6177 43.7992L60.099 43.9347L60.0991 43.9344L59.6177 43.7992ZM41.2398 39.5465V40.0465H41.6108L41.7183 39.6915L41.2398 39.5465ZM38.8081 39.5465H38.3081V40.0465H38.8081V39.5465ZM38.8081 5.22961L39.2404 4.97836L38.3081 3.37436V5.22961H38.8081ZM36.9267 39.5465V40.0465H37.4267V39.5465H36.9267ZM36.9267 5.47864H37.4267V3.57816L36.4915 5.23258L36.9267 5.47864ZM34.6338 39.5465L34.1553 39.6915L34.2629 40.0465H34.6338V39.5465ZM56.6038 44.4045L57.0813 44.5528L57.3129 43.8071L56.5387 43.9088L56.6038 44.4045ZM56.599 44.4199L56.1215 44.2716L56.1215 44.2717L56.599 44.4199ZM56.6031 44.4046L56.1255 44.2564L55.894 45.002L56.6682 44.9004L56.6031 44.4046ZM57.365 43.0542L57.6966 43.4284L58.0489 43.1163L57.7585 42.7458L57.365 43.0542ZM43.5018 38.5L43.5278 38.0007L43.1263 37.9798L43.0197 38.3674L43.5018 38.5ZM42.8269 40.7878L43.3035 40.9387L43.3036 40.9385L42.8269 40.7878ZM33.0439 40.7878L32.5668 40.9371L32.5672 40.9386L33.0439 40.7878ZM32.416 38.6566L32.8976 38.5223L32.7853 38.1193L32.3687 38.1589L32.416 38.6566ZM22.5528 42.0527L22.245 41.6586L22.0839 41.7845L22.0571 41.9872L22.5528 42.0527ZM22.5314 42.2192L22.0353 42.1564L22.0353 42.1564L22.5314 42.2192ZM22.4963 42.487L22.0011 42.418L22.0006 42.4214L22.4963 42.487ZM22.2917 44.8175L21.7923 44.8422L21.8334 45.6714L22.5472 45.2473L22.2917 44.8175ZM22.9197 44.1221L22.518 43.8243L22.5166 43.8263L22.9197 44.1221ZM22.923 44.1176L23.3246 44.4154L23.3247 44.4154L22.923 44.1176ZM27.8573 44.1175L27.4556 44.4153L27.4557 44.4154L27.8573 44.1175ZM27.8607 44.1221L28.2631 43.8254L28.2623 43.8243L27.8607 44.1221ZM29.7844 44.1221L29.3828 43.8243L29.3828 43.8244L29.7844 44.1221ZM29.7878 44.1176L30.1894 44.4154L30.1894 44.4154L29.7878 44.1176ZM34.722 44.1175L34.3204 44.4153L34.3204 44.4154L34.722 44.1175ZM34.7254 44.1221L35.1271 43.8244L35.127 43.8243L34.7254 44.1221ZM36.6492 44.1221L37.0509 44.4199L37.0515 44.419L36.6492 44.1221ZM41.5845 44.1175L41.1828 44.4153L41.1829 44.4154L41.5845 44.1175ZM41.5879 44.1221L41.9901 43.8251L41.9895 43.8243L41.5879 44.1221ZM43.514 44.1246L43.9156 44.4223L43.9157 44.4223L43.514 44.1246ZM43.5173 44.12L43.1157 43.8223L43.1156 43.8223L43.5173 44.12ZM48.4516 44.12L48.8533 43.8223L48.8532 43.8222L48.4516 44.12ZM48.455 44.1246L48.8574 43.8278L48.8567 43.8269L48.455 44.1246ZM50.3811 44.1221L50.7833 44.4192L50.7834 44.419L50.3811 44.1221ZM55.3187 44.1176L55.7204 43.8198L55.7204 43.8198L55.3187 44.1176ZM55.3221 44.1221L54.9204 44.4199L54.9204 44.4199L55.3221 44.1221ZM56.4274 44.8839L56.6294 45.3413L56.7334 45.2954L56.8073 45.209L56.4274 44.8839ZM60.0022 44.1821C60.0328 44.1254 60.0555 44.069 60.0724 44.0181L59.1228 43.7044C59.122 43.707 59.1213 43.7087 59.121 43.7094C59.1207 43.7102 59.1211 43.7091 59.1225 43.7065L60.0022 44.1821ZM59.2449 43.558L59.2445 43.5583L59.8802 44.3303L59.8806 44.3299L59.2449 43.558ZM59.7854 44.4324C59.9333 44.3329 59.9958 44.1961 60.0108 44.1659L59.1148 43.7219C59.1015 43.7487 59.1358 43.6641 59.2272 43.6026L59.7854 44.4324ZM59.8796 44.3571C59.8897 44.343 59.9091 44.3161 59.9293 44.2842L59.0834 43.7508C59.0828 43.7518 59.0815 43.7537 59.079 43.7573C59.0762 43.7614 59.073 43.7659 59.0672 43.774L59.8796 44.3571ZM59.8648 44.378L59.8812 44.3548L59.0655 43.7763L59.0491 43.7994L59.8648 44.378ZM59.7689 44.4951C59.8 44.4603 59.8283 44.4251 59.8488 44.3993L59.0651 43.7781C59.048 43.7997 59.034 43.8167 59.0227 43.8294L59.7689 44.4951ZM59.6709 44.5914C59.7046 44.5611 59.7334 44.5319 59.751 44.5142L59.0406 43.8103C59.0206 43.8306 59.0117 43.8393 59.0032 43.847L59.6709 44.5914ZM59.5576 44.6864C59.5988 44.6561 59.6458 44.6179 59.6922 44.5711L58.9818 43.8673C58.9817 43.8674 58.9804 43.8687 58.9776 43.8711C58.9747 43.8735 58.9709 43.8765 58.9659 43.8802L59.5576 44.6864ZM59.4501 44.7561C59.481 44.7374 59.5136 44.7165 59.5408 44.6982L58.9827 43.8684C58.9675 43.8786 58.9484 43.8909 58.9323 43.9007L59.4501 44.7561ZM59.3176 44.8268C59.3505 44.8114 59.3781 44.7961 59.3935 44.7875C59.4031 44.7821 59.4063 44.7803 59.4115 44.7774C59.4155 44.7752 59.4167 44.7746 59.4165 44.7748L58.9659 43.882C58.9516 43.8893 58.939 43.8961 58.9292 43.9014C58.9207 43.9061 58.9102 43.912 58.906 43.9144C58.8938 43.9212 58.8931 43.9213 58.8955 43.9202L59.3176 44.8268ZM59.2158 44.8686C59.2323 44.8626 59.2813 44.8453 59.3318 44.8199L58.8813 43.9271C58.8885 43.9234 58.8927 43.9219 58.891 43.9225C58.8902 43.9228 58.8886 43.9235 58.8855 43.9247C58.8822 43.9259 58.8785 43.9272 58.8729 43.9293L59.2158 44.8686ZM59.1981 44.8752C59.2017 44.8738 59.2061 44.8722 59.2158 44.8686L58.8729 43.9293C58.8646 43.9323 58.8508 43.9373 58.8362 43.943L59.1981 44.8752ZM59.1996 44.8747C59.2033 44.8731 59.2032 44.8731 59.2028 44.8733C59.2019 44.8736 59.1987 44.875 59.194 44.8768L58.8403 43.9414C58.8199 43.9491 58.8021 43.9571 58.7981 43.9588L59.1996 44.8747ZM59.1835 44.8816L59.1959 44.8763L58.8018 43.9572L58.7895 43.9625L59.1835 44.8816ZM59.0702 44.9183C59.117 44.9078 59.154 44.8938 59.1763 44.8846L58.7967 43.9595C58.8029 43.9569 58.823 43.9489 58.8513 43.9426L59.0702 44.9183ZM59.0573 44.9176C59.0252 44.9257 58.9972 44.9291 58.9763 44.9306C58.9663 44.9313 58.9584 44.9315 58.9536 44.9316C58.9494 44.9316 58.946 44.9316 58.9477 44.9316C58.948 44.9316 58.9535 44.9316 58.9597 44.9315C58.9666 44.9314 58.9766 44.9311 58.9887 44.9303C59.0138 44.9285 59.0462 44.9245 59.083 44.9153L58.8384 43.9456C58.8706 43.9375 58.8985 43.9341 58.9194 43.9327C58.9293 43.932 58.9373 43.9318 58.942 43.9317C58.9462 43.9316 58.9496 43.9316 58.9479 43.9316C58.9475 43.9316 58.942 43.9316 58.9358 43.9317C58.929 43.9318 58.9189 43.9321 58.9068 43.933C58.8816 43.9347 58.8492 43.9387 58.8124 43.948L59.0573 44.9176ZM58.7091 44.9637C58.8379 44.9637 58.9561 44.944 59.0609 44.9167L58.8088 43.949C58.7678 43.9596 58.7355 43.9637 58.7091 43.9637V44.9637ZM58.5656 44.4803C58.7676 44.9377 58.7674 44.9378 58.7671 44.9379C58.767 44.9379 58.7668 44.938 58.7667 44.9381C58.7664 44.9382 58.766 44.9384 58.7657 44.9385C58.7651 44.9388 58.7645 44.939 58.7639 44.9393C58.7627 44.9398 58.7615 44.9403 58.7603 44.9408C58.7579 44.9418 58.7556 44.9428 58.7532 44.9437C58.7486 44.9456 58.7442 44.9473 58.74 44.9489C58.7315 44.952 58.7239 44.9545 58.7171 44.9565C58.7036 44.9606 58.6936 44.9627 58.6879 44.9638C58.6768 44.9658 58.6821 44.9637 58.7091 44.9637V43.9637C58.6303 43.9637 58.5639 43.9698 58.5075 43.9802C58.4791 43.9854 58.4531 43.9917 58.4292 43.9989C58.4173 44.0024 58.4059 44.0063 58.3949 44.0103C58.3895 44.0123 58.3841 44.0143 58.3789 44.0164C58.3763 44.0175 58.3738 44.0186 58.3712 44.0196C58.37 44.0202 58.3687 44.0207 58.3674 44.0212C58.3668 44.0215 58.3662 44.0218 58.3656 44.0221C58.3652 44.0222 58.3649 44.0223 58.3646 44.0225C58.3645 44.0225 58.3642 44.0226 58.3642 44.0227C58.3639 44.0228 58.3637 44.0229 58.5656 44.4803ZM58.8717 45.0922C58.8971 45.0103 58.9266 44.9155 58.9544 44.8356C58.9685 44.7954 58.9797 44.7661 58.9875 44.7478C58.9914 44.7386 58.9922 44.7375 58.9898 44.742C58.9886 44.7444 58.985 44.7509 58.9793 44.76C58.974 44.7683 58.9629 44.7851 58.9455 44.8054L58.1858 44.1552C58.1185 44.2338 58.0796 44.3275 58.0677 44.3552C58.0471 44.4036 58.0274 44.4569 58.0103 44.5062C57.9756 44.6054 57.941 44.7173 57.9166 44.7957L58.8717 45.0922ZM58.8684 45.1022L58.8685 45.1021L57.9198 44.7859L57.9198 44.786L58.8684 45.1022ZM58.8748 45.0816L58.8749 45.0815L57.9133 44.8068L57.9133 44.8068L58.8748 45.0816ZM58.8668 45.1079L58.8716 45.0924L57.9165 44.796L57.9117 44.8114L58.8668 45.1079ZM56.2727 47.2871C57.205 47.2871 57.8279 46.9053 58.2307 46.4121C58.6123 45.9447 58.7769 45.3985 58.867 45.1074L57.9116 44.812C57.8182 45.1141 57.6994 45.4817 57.4561 45.7796C57.2339 46.0518 56.8902 46.2871 56.2727 46.2871V47.2871ZM53.4051 45.5468C53.8791 46.1861 54.6727 47.2871 56.2727 47.2871V46.2871C55.2215 46.2871 54.6981 45.6117 54.2085 44.9512L53.4051 45.5468ZM53.4018 45.5423L53.4052 45.5469L54.2084 44.9511L54.205 44.9465L53.4018 45.5423ZM52.8415 44.9636C52.884 44.9636 52.8991 44.9687 52.9036 44.9702C52.9079 44.9718 52.9245 44.9779 52.9596 45.0072C53.0471 45.0803 53.1686 45.2249 53.4004 45.5404L54.2064 44.9484C53.9866 44.6493 53.7966 44.4034 53.6007 44.2398C53.3657 44.0435 53.1236 43.9636 52.8415 43.9636V44.9636ZM52.2813 45.5398C52.5148 45.2247 52.6364 45.0803 52.7242 45.007C52.7594 44.9777 52.7759 44.9716 52.7799 44.9702C52.7842 44.9687 52.799 44.9636 52.8415 44.9636V43.9636C52.5592 43.9636 52.3177 44.0437 52.0833 44.2394C51.8884 44.4022 51.6983 44.647 51.478 44.9442L52.2813 45.5398ZM52.278 45.5442L52.2813 45.5397L51.4779 44.9443L51.4746 44.9488L52.278 45.5442ZM49.408 47.2846C51.0101 47.2846 51.8038 46.1839 52.2779 45.5443L51.4746 44.9487C50.9852 45.6089 50.4617 46.2846 49.408 46.2846V47.2846ZM46.5404 45.5444C47.0143 46.1836 47.8079 47.2846 49.408 47.2846V46.2846C48.3567 46.2846 47.8333 45.6093 47.3437 44.9488L46.5404 45.5444ZM46.5369 45.5396L46.5403 45.5442L47.3438 44.9489L47.3404 44.9444L46.5369 45.5396ZM45.9768 44.9636C46.0193 44.9636 46.0344 44.9687 46.039 44.9703C46.0435 44.9719 46.0602 44.9781 46.0953 45.0073C46.1828 45.0803 46.3044 45.2244 46.5362 45.5388L47.341 44.9452C47.1213 44.6473 46.9313 44.4023 46.7354 44.2391C46.5006 44.0434 46.2587 43.9636 45.9768 43.9636V44.9636ZM45.4171 45.5414C45.6501 45.2259 45.7725 45.0808 45.8605 45.0072C45.8959 44.9777 45.9126 44.9715 45.9166 44.97C45.9208 44.9686 45.9352 44.9636 45.9768 44.9636V43.9636C45.6949 43.9636 45.4536 44.0441 45.2193 44.2398C45.024 44.403 44.8335 44.6483 44.6127 44.9474L45.4171 45.5414ZM42.5455 47.2871C44.149 47.2871 44.9449 46.1815 45.4172 45.5413L44.6125 44.9476C44.1253 45.6079 43.5995 46.2871 42.5455 46.2871V47.2871ZM39.6756 45.5468C40.1498 46.1863 40.9433 47.2871 42.5455 47.2871V46.2871C41.4918 46.2871 40.9684 45.6114 40.4789 44.9512L39.6756 45.5468ZM39.6722 45.5422L39.6756 45.5467L40.4789 44.9513L40.4755 44.9467L39.6722 45.5422ZM39.112 44.966C39.1545 44.966 39.1697 44.9711 39.1743 44.9727C39.1787 44.9743 39.1954 44.9805 39.2305 45.0098C39.3181 45.0827 39.4396 45.2268 39.6715 45.5412L40.4763 44.9477C40.2566 44.6498 40.0665 44.4047 39.8707 44.2415C39.6359 44.0459 39.394 43.966 39.112 43.966V44.966ZM38.5518 45.5422C38.7853 45.2272 38.9069 45.0828 38.9947 45.0094C39.0299 44.9801 39.0463 44.974 39.0504 44.9726C39.0546 44.9711 39.0695 44.966 39.112 44.966V43.966C38.8296 43.966 38.5882 44.0461 38.3538 44.2418C38.1588 44.4046 37.9688 44.6494 37.7484 44.9467L38.5518 45.5422ZM35.6808 47.2871C37.2868 47.2871 38.0803 46.1812 38.5524 45.5413L37.7478 44.9476C37.2604 45.6082 36.7369 46.2871 35.6808 46.2871V47.2871ZM32.8132 45.5468C33.2871 46.1861 34.0808 47.2871 35.6808 47.2871V46.2871C34.6295 46.2871 34.1062 45.6117 33.6165 44.9512L32.8132 45.5468ZM32.8098 45.5423L32.8132 45.5469L33.6164 44.9512L33.613 44.9466L32.8098 45.5423ZM32.2496 44.966C32.2921 44.966 32.3072 44.9711 32.3119 44.9727C32.3163 44.9743 32.333 44.9805 32.3681 45.0098C32.4556 45.0827 32.5772 45.2268 32.809 45.5412L33.6138 44.9477C33.3941 44.6498 33.2041 44.4047 33.0082 44.2415C32.7734 44.0459 32.5316 43.966 32.2496 43.966V44.966ZM31.6899 45.5439C31.9229 45.2283 32.0453 45.0832 32.1333 45.0097C32.1687 44.9801 32.1854 44.9739 32.1895 44.9725C32.1936 44.971 32.208 44.966 32.2496 44.966V43.966C31.9677 43.966 31.7264 44.0466 31.4922 44.2422C31.2968 44.4055 31.1063 44.6508 30.8855 44.9499L31.6899 45.5439ZM28.8184 47.2895C30.4219 47.2895 31.2177 46.1839 31.69 45.5437L30.8853 44.95C30.3981 45.6104 29.8723 46.2895 28.8184 46.2895V47.2895ZM25.9508 45.5492C26.4247 46.1885 27.2183 47.2895 28.8184 47.2895V46.2895C27.7671 46.2895 27.2437 45.6141 26.7541 44.9537L25.9508 45.5492ZM25.9474 45.5447L25.9508 45.5492L26.7541 44.9536L26.7507 44.9491L25.9474 45.5447ZM25.3871 44.9685C25.4297 44.9685 25.4448 44.9735 25.4494 44.9752C25.4539 44.9767 25.4706 44.9829 25.5057 45.0122C25.5932 45.0851 25.7148 45.2293 25.9466 45.5436L26.7514 44.9501C26.5317 44.6522 26.3417 44.4071 26.1458 44.2439C25.911 44.0483 25.6691 43.9685 25.3871 43.9685V44.9685ZM24.8275 45.5463C25.0605 45.2307 25.1828 45.0856 25.2709 45.0121C25.3063 44.9825 25.323 44.9763 25.327 44.9749C25.3312 44.9734 25.3456 44.9685 25.3871 44.9685V43.9685C25.1053 43.9685 24.864 44.049 24.6297 44.2447C24.4344 44.4079 24.2439 44.6532 24.023 44.9523L24.8275 45.5463ZM21.9559 47.2919C23.5594 47.2919 24.3553 46.1863 24.8276 45.5461L24.0229 44.9524C23.5357 45.6128 23.0098 46.2919 21.9559 46.2919V47.2919ZM20.5027 46.6322C20.8702 47.0579 21.3928 47.2919 21.9559 47.2919V46.2919C21.677 46.2919 21.433 46.1795 21.2596 45.9787L20.5027 46.6322ZM20.1315 42.1624C19.9975 43.1718 19.8905 44.0424 19.9068 44.7588C19.9233 45.4791 20.0646 46.1283 20.5039 46.6335L21.2585 45.9773C21.0416 45.7279 20.9207 45.3566 20.9066 44.736C20.8923 44.1115 20.9865 43.3208 21.1228 42.294L20.1315 42.1624ZM20.136 42.128L20.1314 42.1632L21.1229 42.2932L21.1276 42.2579L20.136 42.128ZM20.329 39.8304C20.3488 40.0521 20.3292 40.4273 20.2862 40.8699C20.2443 41.3015 20.1845 41.7583 20.136 42.1279L21.1276 42.2579C21.1757 41.8909 21.2378 41.4175 21.2816 40.9665C21.3242 40.5266 21.354 40.0668 21.3251 39.7418L20.329 39.8304ZM15.7312 46.4937C16.3642 45.2289 17.2924 43.725 18.2722 42.5012C18.7622 41.8892 19.2562 41.3584 19.724 40.9642C20.2007 40.5624 20.6077 40.339 20.9238 40.2767L20.7304 39.2956C20.1681 39.4064 19.6047 39.757 19.0796 40.1996C18.5454 40.6497 18.006 41.2336 17.4915 41.8762C16.4624 43.1616 15.4974 44.7265 14.837 46.0462L15.7312 46.4937ZM14.4445 47.2921C14.9862 47.2921 15.4873 46.986 15.7321 46.4919L14.8361 46.048C14.761 46.1994 14.6084 46.2921 14.4445 46.2921V47.2921ZM14.3255 47.2858C14.3806 47.2927 14.4308 47.2921 14.4445 47.2921V46.2921C14.4395 46.2921 14.4368 46.2921 14.4344 46.292C14.4322 46.292 14.4316 46.292 14.4321 46.292C14.4328 46.292 14.4399 46.2922 14.4507 46.2936L14.3255 47.2858ZM13.0894 46.3359C13.2836 46.8804 13.7842 47.256 14.3596 47.2889L14.4166 46.2905C14.2441 46.2807 14.091 46.1674 14.0312 45.9999L13.0894 46.3359ZM12.997 36.9514C11.933 38.5969 11.9395 40.8399 12.1917 42.6523C12.4475 44.4908 12.9764 46.021 13.0896 46.3367L14.031 45.9991C13.9278 45.7115 13.4243 44.2549 13.1822 42.5145C12.9364 40.7481 12.9794 38.8203 13.8367 37.4944L12.997 36.9514ZM16.7614 34.8776C15.1358 34.9836 13.8146 35.6895 12.9972 36.951L13.8365 37.4948C14.4584 36.5349 15.4701 35.964 16.8265 35.8754L16.7614 34.8776ZM18.332 34.4738C18.3527 34.4231 18.3336 34.5117 18.0482 34.6289C17.7884 34.7357 17.373 34.8372 16.761 34.8776L16.8268 35.8754C17.5106 35.8303 18.0395 35.7136 18.4282 35.5539C18.7913 35.4047 19.1249 35.1788 19.2584 34.8504L18.332 34.4738ZM18.1107 34.189C18.2129 34.3059 18.2733 34.4105 18.3013 34.4835C18.315 34.5194 18.3173 34.5382 18.3174 34.5406C18.3177 34.5433 18.3148 34.5162 18.332 34.4738L19.2584 34.8504C19.3651 34.5879 19.3086 34.3176 19.2351 34.1259C19.1561 33.9194 19.0249 33.7154 18.8637 33.531L18.1107 34.189ZM14.5697 33.381C16.1783 32.9399 17.5429 33.5373 18.1101 34.1884L18.8642 33.5316C18.0297 32.5737 16.2618 31.88 14.3052 32.4166L14.5697 33.381ZM8.74425 40.4846C9.19053 38.842 10.0804 37.2099 11.1578 35.9094C12.2431 34.5994 13.4725 33.6804 14.5691 33.3812L14.3059 32.4165C12.9307 32.7917 11.539 33.8818 10.3878 35.2714C9.22867 36.6705 8.2666 38.4286 7.77923 40.2224L8.74425 40.4846ZM9.27755 44.8334C8.72404 44.2601 8.50066 43.4911 8.46581 42.6798C8.43096 41.8683 8.58782 41.0627 8.74438 40.4841L7.7791 40.2229C7.60876 40.8524 7.42576 41.7686 7.46673 42.7227C7.50772 43.6771 7.77584 44.7177 8.55814 45.528L9.27755 44.8334ZM9.24965 46.8804C9.81631 46.323 9.83038 45.4094 9.27858 44.8345L8.55711 45.5269C8.72964 45.7067 8.7249 45.9939 8.54841 46.1675L9.24965 46.8804ZM7.20837 46.8523C7.76605 47.4296 8.67683 47.4403 9.24852 46.8815L8.54954 46.1664C8.37338 46.3385 8.09894 46.3349 7.92759 46.1576L7.20837 46.8523ZM5.96367 39.7218C5.18555 42.5871 5.56978 45.1567 7.20843 46.8524L7.92753 46.1575C6.6171 44.8014 6.20644 42.6436 6.92872 39.9839L5.96367 39.7218ZM13.8143 30.5846C11.9466 31.0937 10.2324 32.4809 8.87525 34.1565C7.51344 35.8377 6.46876 37.8604 5.96365 39.7219L6.92875 39.9838C7.39473 38.2664 8.37133 36.3673 9.65231 34.7859C10.9379 33.1988 12.488 31.9826 14.0773 31.5494L13.8143 30.5846ZM20.2774 32.2789C19.0425 30.8611 16.576 29.8313 13.8142 30.5847L14.0774 31.5494C16.4659 30.8979 18.5382 31.8046 19.5233 32.9357L20.2774 32.2789ZM20.9978 35.5787C21.4514 34.4744 21.1381 33.2644 20.2769 32.2784L19.5238 32.9362C20.2006 33.7112 20.3483 34.5279 20.0728 35.1988L20.9978 35.5787ZM16.9489 37.7721C18.2171 37.6886 19.1289 37.3938 19.7798 36.9836C20.4362 36.5698 20.8021 36.0544 20.9977 35.579L20.073 35.1984C19.9511 35.4944 19.7161 35.8417 19.2466 36.1376C18.7716 36.4369 18.0325 36.6986 16.8832 36.7742L16.9489 37.7721ZM15.4141 38.535C15.7001 38.0942 16.163 37.8238 16.9489 37.772L16.8832 36.7742C15.8676 36.8411 15.0747 37.221 14.5753 37.9906L15.4141 38.535ZM15.235 43.2897C15.0593 42.4437 14.9301 41.5056 14.9379 40.6411C14.9458 39.7646 15.0944 39.029 15.4145 38.5344L14.5749 37.9911C14.1025 38.7211 13.9465 39.6836 13.9379 40.6321C13.9293 41.5926 14.0717 42.6065 14.2559 43.493L15.235 43.2897ZM21.212 37.3666C19.7158 37.3196 18.3265 38.2572 17.1868 39.3864C16.03 40.5326 15.0339 41.9723 14.32 43.1287L15.1709 43.654C15.868 42.5249 16.8157 41.1618 17.8907 40.0967C18.9828 39.0147 20.1134 38.3326 21.1805 38.3662L21.212 37.3666ZM22.6314 38.0563C22.2752 37.6294 21.7669 37.3857 21.2135 37.3667L21.1791 38.3661C21.4535 38.3755 21.6931 38.4926 21.8636 38.697L22.6314 38.0563ZM23.1851 39.5523C23.1329 38.9935 22.9834 38.4749 22.6302 38.0549L21.8648 38.6984C22.0384 38.9049 22.1476 39.198 22.1894 39.6454L23.1851 39.5523ZM31.8791 36.2939C26.8274 36.8085 24.2199 37.9742 22.4096 39.183L22.9649 40.0147C24.6163 38.912 27.0609 37.7899 31.9805 37.2887L31.8791 36.2939ZM36.7632 1.38823C36.243 2.00695 25.9882 14.6049 31.4441 36.9101L32.4155 36.6725C27.0625 14.788 37.127 2.50948 37.5286 2.03177L36.7632 1.38823ZM36.8455 1.30919C36.8436 1.31076 36.8179 1.33066 36.7908 1.35803L37.5011 2.06196C37.4907 2.07239 37.4818 2.08027 37.476 2.08524C37.471 2.08951 37.4668 2.09278 37.4695 2.09061L36.8455 1.30919ZM36.7705 1.38801C36.792 1.35912 36.8129 1.33815 36.8274 1.32487C36.8396 1.3137 36.8505 1.30526 36.8455 1.30919L37.4696 2.09061C37.4699 2.09035 37.4858 2.07786 37.5028 2.0623C37.5221 2.04464 37.5475 2.01894 37.5731 1.98452L36.7705 1.38801ZM36.9341 1.22297C36.8934 1.25774 36.8491 1.29828 36.8029 1.3488L37.5407 2.02373C37.551 2.01254 37.5631 2.00087 37.5835 1.98343L36.9341 1.22297ZM37.0385 1.13851C36.9813 1.17698 36.937 1.21764 36.9037 1.25126L37.614 1.95514C37.6183 1.95079 37.6116 1.95822 37.5967 1.96821L37.0385 1.13851ZM37.1604 1.06491C37.1327 1.08051 37.0866 1.10617 37.0385 1.1385L37.5967 1.96822C37.6064 1.96167 37.6181 1.95481 37.6508 1.93645L37.1604 1.06491ZM37.1801 1.05383L37.1599 1.06523L37.6513 1.93613L37.6715 1.92473L37.1801 1.05383ZM37.28 0.999841C37.2215 1.02605 37.1738 1.05709 37.1591 1.06638L37.6925 1.91219C37.6976 1.90902 37.7003 1.90728 37.7028 1.90575C37.705 1.90436 37.7057 1.90396 37.7055 1.9041C37.705 1.90439 37.699 1.90788 37.6892 1.91227L37.28 0.999841ZM37.4987 0.926156C37.432 0.942985 37.362 0.96486 37.2891 0.995875L37.6801 1.91624C37.6965 1.90928 37.7159 1.90268 37.7433 1.89577L37.4987 0.926156ZM37.4945 0.928097C37.4872 0.93056 37.4921 0.928813 37.4989 0.926846C37.5067 0.924592 37.5249 0.919644 37.5496 0.916081L37.6923 1.90585C37.7563 1.89663 37.8111 1.87666 37.8133 1.8759L37.4945 0.928097ZM37.4903 0.929509L37.4903 0.929523L37.8175 1.87448L37.8175 1.87446L37.4903 0.929509ZM37.5319 0.916285C37.5141 0.921411 37.4982 0.926843 37.4946 0.928067L37.8133 1.87591C37.8165 1.87484 37.8167 1.87479 37.8164 1.87488C37.8158 1.87505 37.813 1.87596 37.8089 1.87717L37.5319 0.916285ZM37.8679 0.875366C37.7647 0.875366 37.662 0.886171 37.5609 0.908845L37.7798 1.88461C37.8057 1.8788 37.8347 1.87537 37.8679 1.87537V0.875366ZM38.0238 0.880405L37.885 0.875658L37.8508 1.87507L37.9896 1.87982L38.0238 0.880405ZM39.1074 1.39386C38.8331 1.06612 38.4314 0.880112 38.0067 0.880112V1.88011C38.137 1.88011 38.2573 1.93618 38.3405 2.03562L39.1074 1.39386ZM44.4731 36.7402C49.8316 14.5427 39.6269 2.00877 39.1059 1.39206L38.342 2.03742C38.7428 2.51187 48.7583 14.7272 43.5011 36.5056L44.4731 36.7402ZM60.1133 43.1474C60.0531 42.9238 59.5494 41.3621 57.2774 39.7579C55.0119 38.1584 51.0189 36.538 44.0166 36.1238L43.9576 37.122C50.835 37.5289 54.6307 39.1135 56.7006 40.5748C58.7638 42.0316 59.1421 43.3866 59.1477 43.4075L60.1133 43.1474ZM60.1299 43.2382C60.1297 43.237 60.1286 43.2265 60.127 43.2149C60.1253 43.2028 60.122 43.182 60.1158 43.157L59.1452 43.3979C59.1402 43.3776 59.1378 43.3618 59.1368 43.355C59.1359 43.3485 59.1354 43.3434 59.1359 43.3475L60.1299 43.2382ZM60.1288 43.2299C60.1294 43.2341 60.1297 43.2372 60.1299 43.2384C60.13 43.2395 60.1301 43.2402 60.1299 43.2385L59.1358 43.3472C59.136 43.3484 59.1371 43.3595 59.1389 43.3717L60.1288 43.2299ZM60.1206 43.1881C60.1255 43.2081 60.1279 43.2236 60.1288 43.2304L59.1388 43.3712C59.1405 43.3832 59.1438 43.4037 59.1499 43.4284L60.1206 43.1881ZM60.1436 43.3255L60.1295 43.2329L59.1409 43.3836L59.155 43.4762L60.1436 43.3255ZM60.1587 43.5005C60.1587 43.4261 60.1482 43.3578 60.1444 43.3307L59.1543 43.4709C59.1555 43.4796 59.1564 43.4857 59.1571 43.4915C59.1579 43.4971 59.1583 43.5008 59.1586 43.5034C59.1592 43.509 59.1587 43.507 59.1587 43.5005H60.1587ZM60.1561 43.4528C60.1556 43.4493 60.1563 43.4546 60.1569 43.4612C60.1576 43.4687 60.1587 43.4826 60.1587 43.5005H59.1587C59.1587 43.5231 59.1601 43.5419 59.1613 43.5541C59.1623 43.5655 59.1636 43.5755 59.1638 43.5768L60.1561 43.4528ZM60.1565 43.4561L60.1563 43.4544L59.1636 43.5752L59.1638 43.5769L60.1565 43.4561ZM60.1611 43.529C60.1611 43.4919 60.1571 43.4614 60.1565 43.456L59.1638 43.5769C59.1638 43.5769 59.1638 43.5766 59.1637 43.5761C59.1636 43.5756 59.1635 43.5748 59.1634 43.5738C59.1632 43.5719 59.1629 43.5688 59.1626 43.5649C59.1619 43.5572 59.1611 43.5447 59.1611 43.529H60.1611ZM60.16 43.5689C60.1607 43.5565 60.1611 43.5432 60.1611 43.529H59.1611C59.1611 43.5237 59.1612 43.519 59.1615 43.5151L60.16 43.5689ZM60.1578 43.5995C60.1586 43.5904 60.1594 43.58 60.16 43.5687L59.1614 43.5153C59.1616 43.5118 59.1618 43.5092 59.162 43.5077L60.1578 43.5995ZM60.1526 43.6451C60.1531 43.6407 60.1559 43.6195 60.1578 43.5995L59.162 43.5078C59.1621 43.5062 59.1622 43.506 59.1619 43.5086C59.1617 43.5099 59.1615 43.5114 59.1612 43.5137C59.161 43.5157 59.1606 43.519 59.1602 43.522L60.1526 43.6451ZM60.1549 43.622L60.1551 43.6187L59.1576 43.5484L59.1574 43.5516L60.1549 43.622ZM60.1337 43.7895C60.149 43.7174 60.1531 43.6478 60.1549 43.622L59.1574 43.5516C59.1568 43.56 59.1564 43.5661 59.1559 43.5719C59.1555 43.5774 59.1551 43.5813 59.1548 43.5841C59.1542 43.5904 59.1541 43.5885 59.1555 43.5817L60.1337 43.7895ZM60.1111 43.8913C60.1173 43.8662 60.1295 43.8184 60.1379 43.7671L59.1513 43.6042C59.1504 43.6098 59.1484 43.6189 59.1405 43.6508L60.1111 43.8913ZM60.1019 43.9242C60.1029 43.9207 60.1036 43.9185 60.104 43.9171L59.1476 43.625C59.1449 43.634 59.1425 43.6423 59.1405 43.6492L60.1019 43.9242ZM60.0991 43.9344C60.1001 43.9305 60.1011 43.9272 60.1019 43.9242L59.1405 43.6492C59.139 43.6545 59.1375 43.6596 59.1363 43.664L60.0991 43.9344ZM60.0597 44.0521C60.081 44.0005 60.0944 43.9509 60.099 43.9347L59.1364 43.6636C59.1348 43.6692 59.1338 43.6728 59.1329 43.6761C59.132 43.6791 59.1315 43.6807 59.1313 43.6814C59.1308 43.683 59.1322 43.6784 59.1354 43.6704L60.0597 44.0521ZM41.2398 39.0465H38.8081V40.0465H41.2398V39.0465ZM38.3758 5.48087C41.0722 10.1199 46.0673 21.8903 40.7613 39.4015L41.7183 39.6915C47.1224 21.8566 42.0424 9.79914 39.2404 4.97836L38.3758 5.48087ZM39.3081 39.5465V5.22961H38.3081V39.5465H39.3081ZM37.4267 39.5465V5.47864H36.4267V39.5465H37.4267ZM34.6338 40.0465H36.9267V39.0465H34.6338V40.0465ZM36.4915 5.23258C33.6698 10.2238 28.8558 22.2034 34.1553 39.6915L35.1123 39.4015C29.9091 22.2312 34.643 10.5345 37.362 5.7247L36.4915 5.23258ZM56.1263 44.2563L56.1215 44.2716L57.0766 44.5682L57.0813 44.5528L56.1263 44.2563ZM56.6682 44.9004L56.6689 44.9003L56.5387 43.9088L56.538 43.9089L56.6682 44.9004ZM57.0334 42.68C56.454 43.1935 56.2342 43.9063 56.1255 44.2564L57.0806 44.5529C57.1929 44.1909 57.3494 43.7361 57.6966 43.4284L57.0334 42.68ZM43.4758 38.9993C52.9292 39.491 56.051 42.1882 56.9715 43.3626L57.7585 42.7458C56.5959 41.2622 53.1471 38.501 43.5278 38.0007L43.4758 38.9993ZM43.3036 40.9385C43.5502 40.1583 43.7754 39.3905 43.9839 38.6326L43.0197 38.3674C42.8143 39.1142 42.5926 39.8699 42.3501 40.6371L43.3036 40.9385ZM41.9308 41.9499C42.5618 41.9499 43.1142 41.5368 43.3035 40.9387L42.3502 40.6369C42.2901 40.8266 42.1183 40.9499 41.9308 40.9499V41.9499ZM33.9399 41.9499H41.9308V40.9499H33.9399V41.9499ZM32.5672 40.9386C32.7565 41.5369 33.309 41.9499 33.9399 41.9499V40.9499C33.7525 40.9499 33.5806 40.8266 33.5206 40.637L32.5672 40.9386ZM31.9344 38.7909C32.1306 39.4948 32.3391 40.2096 32.5668 40.9371L33.5211 40.6384C33.2972 39.923 33.0918 39.2186 32.8976 38.5223L31.9344 38.7909ZM22.8605 42.4468C23.6731 41.8122 24.5853 41.139 26.0265 40.5486C27.4733 39.9559 29.4754 39.4382 32.4633 39.1544L32.3687 38.1589C29.3102 38.4494 27.2073 38.9842 25.6474 39.6232C24.0819 40.2645 23.0857 41.0021 22.245 41.6586L22.8605 42.4468ZM23.0274 42.2819C23.0345 42.226 23.0413 42.1722 23.0485 42.1182L22.0571 41.9872C22.0495 42.0444 22.0424 42.1009 22.0353 42.1564L23.0274 42.2819ZM22.9915 42.556C23.0049 42.4598 23.0165 42.3685 23.0274 42.2819L22.0353 42.1564C22.0243 42.2438 22.0135 42.329 22.0011 42.418L22.9915 42.556ZM22.7911 44.7927C22.7657 44.2802 22.8972 43.2689 22.992 42.5526L22.0006 42.4214C21.912 43.091 21.7613 44.2156 21.7923 44.8422L22.7911 44.7927ZM22.5166 43.8263C22.219 44.2317 22.1039 44.3475 22.0363 44.3876L22.5472 45.2473C22.8229 45.0834 23.0559 44.7815 23.3227 44.418L22.5166 43.8263ZM22.5214 43.8198L22.518 43.8243L23.3213 44.42L23.3246 44.4154L22.5214 43.8198ZM25.3913 42.0795C23.7892 42.0795 22.9955 43.1803 22.5214 43.8198L23.3247 44.4154C23.8141 43.7552 24.3376 43.0795 25.3913 43.0795V42.0795ZM28.2589 43.8198C27.785 43.1805 26.9913 42.0795 25.3913 42.0795V43.0795C26.4426 43.0795 26.966 43.7549 27.4556 44.4153L28.2589 43.8198ZM28.2623 43.8243L28.2589 43.8197L27.4557 44.4154L27.4591 44.42L28.2623 43.8243ZM28.8225 44.4005C28.78 44.4005 28.7649 44.3955 28.7603 44.3938C28.7558 44.3923 28.7391 44.3861 28.704 44.3568C28.6165 44.2838 28.4949 44.1397 28.2631 43.8254L27.4583 44.4189C27.678 44.7168 27.868 44.9619 28.0639 45.1251C28.2987 45.3207 28.5406 45.4005 28.8225 45.4005V44.4005ZM29.3828 43.8244C29.1492 44.1394 29.0277 44.2838 28.9398 44.3571C28.9047 44.3865 28.8882 44.3925 28.8841 44.394C28.8799 44.3955 28.8651 44.4005 28.8225 44.4005V45.4005C29.1049 45.4005 29.3463 45.3205 29.5807 45.1247C29.7757 44.962 29.9657 44.7172 30.1861 44.4199L29.3828 43.8244ZM29.3862 43.8198L29.3828 43.8243L30.186 44.42L30.1894 44.4154L29.3862 43.8198ZM32.2561 42.0795C30.6539 42.0795 29.8603 43.1803 29.3861 43.8198L30.1894 44.4154C30.6789 43.7552 31.2024 43.0795 32.2561 43.0795V42.0795ZM35.1237 43.8198C34.6498 43.1805 33.8561 42.0795 32.2561 42.0795V43.0795C33.3074 43.0795 33.8307 43.7549 34.3204 44.4153L35.1237 43.8198ZM35.127 43.8243L35.1236 43.8197L34.3204 44.4154L34.3238 44.42L35.127 43.8243ZM35.6873 44.4005C35.6458 44.4005 35.6312 44.3956 35.627 44.3941C35.6228 44.3926 35.606 44.3863 35.5706 44.3568C35.4825 44.2834 35.3602 44.1388 35.1271 43.8244L34.3238 44.4199C34.5446 44.7178 34.7351 44.9623 34.9304 45.1251C35.1645 45.3201 35.4056 45.4005 35.6873 45.4005V44.4005ZM36.2475 43.8244C36.014 44.1394 35.8924 44.2838 35.8046 44.3571C35.7694 44.3865 35.753 44.3925 35.7489 44.394C35.7447 44.3955 35.7298 44.4005 35.6873 44.4005V45.4005C35.9697 45.4005 36.2111 45.3205 36.4455 45.1247C36.6405 44.962 36.8305 44.7172 37.0509 44.4199L36.2475 43.8244ZM39.1185 42.0795C37.5125 42.0795 36.719 43.1854 36.2469 43.8253L37.0515 44.419C37.539 43.7584 38.0624 43.0795 39.1185 43.0795V42.0795ZM41.9861 43.8198C41.5122 43.1805 40.7185 42.0795 39.1185 42.0795V43.0795C40.1698 43.0795 40.6931 43.7549 41.1828 44.4153L41.9861 43.8198ZM41.9895 43.8243L41.9861 43.8197L41.1829 44.4154L41.1863 44.42L41.9895 43.8243ZM42.5521 44.403C42.5096 44.403 42.4945 44.3979 42.4899 44.3963C42.4855 44.3947 42.4687 44.3885 42.4334 44.359C42.3453 44.2856 42.2232 44.1408 41.9901 43.8251L41.1856 44.4191C41.4065 44.7182 41.5971 44.9637 41.793 45.1271C42.028 45.323 42.2699 45.403 42.5521 45.403V44.403ZM43.1123 43.8268C42.8788 44.1418 42.7572 44.2862 42.6694 44.3596C42.6342 44.3889 42.6177 44.395 42.6137 44.3964C42.6095 44.3979 42.5946 44.403 42.5521 44.403V45.403C42.8345 45.403 43.0759 45.3229 43.3103 45.1272C43.5052 44.9644 43.6953 44.7196 43.9156 44.4223L43.1123 43.8268ZM43.1156 43.8223L43.1123 43.8268L43.9157 44.4223L43.919 44.4178L43.1156 43.8223ZM45.9856 42.0819C44.3835 42.0819 43.5898 43.1827 43.1157 43.8223L43.919 44.4178C44.4084 43.7576 44.9319 43.0819 45.9856 43.0819V42.0819ZM48.8532 43.8222C48.3793 43.1829 47.5857 42.0819 45.9856 42.0819V43.0819C47.0369 43.0819 47.5603 43.7573 48.0499 44.4178L48.8532 43.8222ZM48.8567 43.8269L48.8533 43.8223L48.0499 44.4177L48.0533 44.4223L48.8567 43.8269ZM49.4169 44.403C49.3744 44.403 49.3592 44.3979 49.3546 44.3963C49.3501 44.3947 49.3335 44.3885 49.2983 44.3592C49.2108 44.2863 49.0892 44.1422 48.8574 43.8278L48.0526 44.4213C48.2723 44.7192 48.4624 44.9643 48.6582 45.1275C48.893 45.3231 49.1349 45.403 49.4169 45.403V44.403ZM49.9789 43.8251C49.7458 44.1408 49.6236 44.2856 49.5356 44.359C49.5002 44.3885 49.4834 44.3947 49.479 44.3963C49.4744 44.3979 49.4593 44.403 49.4169 44.403V45.403C49.699 45.403 49.9409 45.323 50.1759 45.1271C50.3719 44.9637 50.5625 44.7182 50.7833 44.4192L49.9789 43.8251ZM52.8504 42.0795C51.2469 42.0795 50.4511 43.1851 49.9787 43.8253L50.7834 44.419C51.2706 43.7587 51.7965 43.0795 52.8504 43.0795V42.0795ZM55.7204 43.8198C55.2462 43.1802 54.4526 42.0795 52.8504 42.0795V43.0795C53.9042 43.0795 54.4276 43.7552 54.9171 44.4153L55.7204 43.8198ZM55.7238 43.8244L55.7204 43.8198L54.917 44.4153L54.9204 44.4199L55.7238 43.8244ZM56.284 44.4005C56.2424 44.4005 56.2279 44.3956 56.2236 44.3941C56.2194 44.3926 56.2027 44.3863 56.1672 44.3568C56.0791 44.2834 55.9568 44.1388 55.7238 43.8244L54.9204 44.4199C55.1413 44.7178 55.3318 44.9623 55.5271 45.1251C55.7612 45.3201 56.0022 45.4005 56.284 45.4005V44.4005ZM56.4274 44.8839C56.2255 44.4265 56.2257 44.4264 56.2259 44.4263C56.226 44.4263 56.2262 44.4262 56.2264 44.4261C56.2267 44.426 56.227 44.4258 56.2273 44.4257C56.2279 44.4254 56.2285 44.4252 56.2292 44.4249C56.2304 44.4244 56.2316 44.4239 56.2328 44.4234C56.2352 44.4224 56.2375 44.4214 56.2398 44.4205C56.2444 44.4186 56.2488 44.4169 56.2531 44.4153C56.2615 44.4122 56.2692 44.4097 56.276 44.4077C56.2895 44.4036 56.2995 44.4015 56.3052 44.4004C56.3163 44.3984 56.311 44.4005 56.284 44.4005V45.4005C56.3628 45.4005 56.4292 45.3944 56.4856 45.384C56.5139 45.3788 56.5399 45.3725 56.5638 45.3653C56.5758 45.3617 56.5872 45.3579 56.5982 45.3539C56.6036 45.3519 56.609 45.3498 56.6142 45.3477C56.6168 45.3467 56.6193 45.3456 56.6219 45.3446C56.6231 45.344 56.6244 45.3435 56.6257 45.3429C56.6263 45.3427 56.6269 45.3424 56.6275 45.3421C56.6278 45.342 56.6282 45.3419 56.6285 45.3417C56.6286 45.3416 56.6289 45.3415 56.6289 45.3415C56.6292 45.3414 56.6294 45.3413 56.4274 44.8839ZM56.1215 44.2717C56.0961 44.3536 56.0666 44.4484 56.0387 44.5284C56.0246 44.5687 56.0134 44.5981 56.0056 44.6164C56.0017 44.6256 56.0009 44.6266 56.0032 44.6222C56.0045 44.6198 56.008 44.6133 56.0138 44.6042C56.0191 44.5959 56.0302 44.5791 56.0476 44.5588L56.8073 45.209C56.8746 45.1304 56.9136 45.0366 56.9254 45.0089C56.946 44.9605 56.9657 44.9071 56.9829 44.8578C57.0175 44.7585 57.0522 44.6466 57.0766 44.5681L56.1215 44.2717Z" fill="#222532"/>
<path d="M7.28831 31.1358C7.16837 30.9911 6.07718 29.7308 4.68026 29.7308C4.03355 29.7308 3.10929 29.999 2.38263 31.2735L1.57126 32.6975H8.59106L7.28831 31.1358Z" fill="white" stroke="#222532"/>
<path fill-rule="evenodd" clip-rule="evenodd" d="M5.46384 34.5747L6.43042 34.6767L6.30817 35.6497C5.95303 38.2793 3.20622 41.0536 3.08864 41.1722L1.81634 42.4443L1.50121 40.6644C1.12728 38.5712 1.39302 36.9621 2.28904 35.8823C3.54249 34.3706 5.46384 34.5747 5.46384 34.5747ZM3.73536 37.0997C3.56839 37.299 3.44375 37.5529 3.35674 37.8519L3.35675 37.8519C3.55664 37.5506 3.74948 37.235 3.91409 36.917C3.85295 36.9716 3.7918 37.0309 3.73536 37.0997Z" fill="white"/>
<path d="M6.43042 34.6767L6.92652 34.739L6.9901 34.233L6.48292 34.1795L6.43042 34.6767ZM5.46384 34.5747L5.41103 35.0719L5.41135 35.0719L5.46384 34.5747ZM6.30817 35.6497L6.80369 35.7166L6.80427 35.712L6.30817 35.6497ZM3.08864 41.1722L3.44216 41.5258L3.4438 41.5242L3.08864 41.1722ZM1.81634 42.4443L1.324 42.5315L1.49129 43.4764L2.16987 42.7979L1.81634 42.4443ZM1.50121 40.6644L1.99355 40.5772L1.99342 40.5765L1.50121 40.6644ZM2.28904 35.8823L2.67382 36.2016L2.67394 36.2014L2.28904 35.8823ZM3.35674 37.8519L2.87666 37.7122L2.82255 37.8981L2.90778 38.072L3.35674 37.8519ZM3.73536 37.0997L4.11868 37.4208L4.12196 37.4168L3.73536 37.0997ZM3.35675 37.8519L2.90779 38.072L3.29152 38.8548L3.77342 38.1283L3.35675 37.8519ZM3.91409 36.917L4.35812 37.1469L3.58116 36.544L3.91409 36.917ZM6.48292 34.1795L5.51634 34.0774L5.41135 35.0719L6.37792 35.1739L6.48292 34.1795ZM6.80427 35.712L6.92652 34.739L5.93432 34.6144L5.81207 35.5874L6.80427 35.712ZM3.4438 41.5242C3.51087 41.4565 4.24753 40.7121 5.01526 39.6445C5.77355 38.59 6.60918 37.1567 6.80367 35.7166L5.81267 35.5828C5.65201 36.7723 4.93667 38.0409 4.20338 39.0606C3.47952 40.0673 2.78398 40.7693 2.73347 40.8203L3.4438 41.5242ZM2.16987 42.7979L3.44216 41.5258L2.73511 40.8187L1.46282 42.0908L2.16987 42.7979ZM1.00887 40.7516L1.324 42.5315L2.30869 42.3572L1.99355 40.5772L1.00887 40.7516ZM1.90426 35.563C0.874425 36.8041 0.622631 38.5895 1.009 40.7523L1.99342 40.5765C1.63193 38.5529 1.91162 37.1201 2.67382 36.2016L1.90426 35.563ZM5.46384 34.5747C5.51666 34.0775 5.51645 34.0774 5.51623 34.0774C5.51614 34.0774 5.51591 34.0774 5.51575 34.0774C5.51541 34.0773 5.51505 34.0773 5.51466 34.0772C5.51387 34.0772 5.51296 34.0771 5.51194 34.077C5.50989 34.0768 5.50736 34.0765 5.50438 34.0762C5.49841 34.0757 5.49059 34.075 5.48099 34.0743C5.4618 34.0728 5.43549 34.071 5.40271 34.0694C5.3372 34.0663 5.24549 34.064 5.13282 34.0665C4.90812 34.0716 4.59631 34.0959 4.24067 34.1729C3.5301 34.3268 2.62262 34.6966 1.90414 35.5631L2.67394 36.2014C3.20891 35.5562 3.88883 35.2723 4.4523 35.1502C4.73368 35.0893 4.98055 35.0702 5.15528 35.0663C5.24232 35.0643 5.3105 35.0661 5.35496 35.0683C5.37717 35.0693 5.39336 35.0705 5.40293 35.0712C5.40771 35.0716 5.41083 35.0719 5.41221 35.072C5.4129 35.0721 5.41315 35.0721 5.41296 35.0721C5.41286 35.072 5.41265 35.072 5.41233 35.072C5.41217 35.072 5.41198 35.072 5.41176 35.0719C5.41165 35.0719 5.41147 35.0719 5.41142 35.0719C5.41123 35.0719 5.41103 35.0719 5.46384 34.5747ZM3.83683 37.9916C3.90983 37.7408 4.007 37.5541 4.11866 37.4208L3.35207 36.7786C3.12979 37.044 2.97768 37.3651 2.87666 37.7122L3.83683 37.9916ZM3.80571 37.6318L3.8057 37.6318L2.90778 38.072L2.90779 38.072L3.80571 37.6318ZM3.47007 36.6871C3.31617 36.9844 3.13346 37.284 2.94008 37.5755L3.77342 38.1283C3.97982 37.8171 4.18278 37.4855 4.35812 37.1469L3.47007 36.6871ZM4.12196 37.4168C4.15578 37.3756 4.19616 37.3354 4.24703 37.29L3.58116 36.544C3.50973 36.6077 3.42783 36.6862 3.34877 36.7826L4.12196 37.4168Z" fill="#222532"/>
<path fill-rule="evenodd" clip-rule="evenodd" d="M12.7066 29.2914C12.7066 30.2834 11.9046 31.0903 10.9216 31.0903C9.93861 31.0903 9.13904 30.2834 9.13904 29.2914C9.13904 28.2993 9.93861 27.4924 10.9216 27.4924C11.907 27.4924 12.7066 28.2993 12.7066 29.2914ZM11.0204 29.2913C11.0204 29.2367 10.9757 29.1917 10.9216 29.1917C10.8675 29.1917 10.8252 29.2367 10.8252 29.2913C10.8252 29.4005 11.0204 29.4005 11.0204 29.2913Z" fill="white"/>
<path d="M10.9216 31.5903C12.1842 31.5903 13.2066 30.5561 13.2066 29.2914H12.2066C12.2066 30.0107 11.625 30.5903 10.9216 30.5903V31.5903ZM8.63904 29.2914C8.63904 30.5552 9.65817 31.5903 10.9216 31.5903V30.5903C10.219 30.5903 9.63904 30.0116 9.63904 29.2914H8.63904ZM10.9216 26.9924C9.65817 26.9924 8.63904 28.0275 8.63904 29.2914H9.63904C9.63904 28.5712 10.219 27.9924 10.9216 27.9924V26.9924ZM13.2066 29.2914C13.2066 28.0271 12.187 26.9924 10.9216 26.9924V27.9924C11.627 27.9924 12.2066 28.5716 12.2066 29.2914H13.2066ZM10.9216 29.6917C10.6953 29.6917 10.5204 29.5086 10.5204 29.2913H11.5204C11.5204 28.9649 11.2562 28.6917 10.9216 28.6917V29.6917ZM11.3252 29.2913C11.3252 29.4927 11.1635 29.6917 10.9216 29.6917V28.6917C10.5716 28.6917 10.3252 28.9808 10.3252 29.2913H11.3252ZM10.5204 29.2913C10.5204 29.1493 10.5923 29.0255 10.691 28.9519C10.7754 28.889 10.8619 28.8732 10.9228 28.8732C10.9837 28.8732 11.0702 28.889 11.1546 28.9519C11.2533 29.0255 11.3252 29.1493 11.3252 29.2913H10.3252C10.3252 29.488 10.4215 29.6526 10.5568 29.7535C10.6778 29.8438 10.8131 29.8732 10.9228 29.8732C11.0325 29.8732 11.1678 29.8438 11.2888 29.7535C11.4241 29.6526 11.5204 29.488 11.5204 29.2913H10.5204Z" fill="#222532"/>
</svg>
