<svg width="39" height="40" viewBox="0 0 39 40" fill="none" xmlns="http://www.w3.org/2000/svg">
<path d="M38.0371 32.1881H29.7503C29.4851 32.1881 29.2688 32.4062 29.2688 32.6736C29.2688 32.941 29.4851 33.1591 29.7503 33.1591H38.0371C38.3022 33.1591 38.5185 32.941 38.5185 32.6736C38.5185 32.4062 38.3022 32.1881 38.0371 32.1881Z" fill="white"/>
<path d="M38.0371 38.3401H28.7459C28.4807 38.3401 28.2645 38.5581 28.2645 38.8254C28.2645 39.0927 28.4807 39.3107 28.7459 39.3107H38.0371C38.3023 39.3107 38.5186 39.0927 38.5186 38.8254C38.5186 38.5581 38.3023 38.3401 38.0371 38.3401Z" fill="white"/>
<path d="M0.481512 35.6917H7.97432C8.23951 35.6917 8.4558 35.4736 8.4558 35.2062C8.4558 34.9389 8.23951 34.7208 7.97432 34.7208H0.481512C0.216322 34.7208 3.05176e-05 34.9389 3.05176e-05 35.2062C3.05176e-05 35.4755 0.216322 35.6917 0.481512 35.6917Z" fill="white"/>
<path fill-rule="evenodd" clip-rule="evenodd" d="M3.7449 0.534459C3.93107 0.441568 4.153 0.479481 4.29971 0.627354L4.29995 0.627583C4.44477 0.775431 4.48238 1.00103 4.38834 1.18871C4.0893 1.79158 3.93884 2.43424 3.93884 3.09967C3.93884 5.47697 5.86852 7.41259 8.23832 7.41259C8.90223 7.41259 9.54356 7.25903 10.1454 6.95949C10.3316 6.8666 10.5535 6.90452 10.7002 7.05239C10.8469 7.20024 10.8827 7.42584 10.7905 7.61163C9.89336 9.42591 8.08781 10.552 6.07912 10.552C3.17689 10.552 0.816528 8.18018 0.816528 5.26635C0.816528 3.24731 1.93934 1.43497 3.7449 0.534459ZM9.12773 8.30699C8.83432 8.35818 8.53902 8.38282 8.2381 8.38282L8.23822 8.38299C5.33604 8.38299 2.97567 6.01317 2.97755 3.09941C2.97755 2.79609 3.002 2.49843 3.05278 2.20459C2.24782 2.9989 1.7795 4.09085 1.7795 5.26622C1.7795 7.64537 3.70919 9.58093 6.07899 9.58093C7.25072 9.58093 8.33594 9.1127 9.12773 8.30699Z" fill="white"/>
<path fill-rule="evenodd" clip-rule="evenodd" d="M38.039 24.4099H38.0371C37.7719 24.4099 37.5575 24.6261 37.5556 24.8934L37.5443 27.4848L19.677 0.92362C19.4984 0.656319 19.0602 0.656319 18.8796 0.92362L1.02532 27.4659L1.03661 24.7152C1.03849 24.4479 0.8222 24.2279 0.55701 24.2279H0.555129C0.289939 24.2279 0.0755301 24.4441 0.0736475 24.7114L0.0567205 29.0526C0.0548394 29.2669 0.19402 29.4545 0.39526 29.519C0.44228 29.5342 0.489298 29.5399 0.538202 29.5399C0.694308 29.5399 0.844771 29.4621 0.936926 29.3275L3.7468 25.1512V29.0564C3.7468 29.3237 3.96309 29.5417 4.22829 29.5417H14.9523C15.4996 31.3313 17.1603 32.6356 19.1201 32.6356C19.1267 32.6356 19.1328 32.6351 19.1389 32.6347C19.145 32.6342 19.1512 32.6337 19.1577 32.6337C19.1634 32.6337 19.1709 32.6356 19.1765 32.6356C19.1859 32.6356 19.1954 32.6342 19.2048 32.6328C19.2142 32.6314 19.2236 32.6299 19.233 32.6299C21.1419 32.5806 22.75 31.2953 23.2861 29.5417H34.3303C34.5955 29.5417 34.8118 29.3237 34.8118 29.0564V25.1512L37.6217 29.3275C37.7401 29.5038 37.9583 29.5816 38.1596 29.519C38.3608 29.4564 38.5 29.2688 38.5 29.0564L38.5188 24.8971C38.5207 24.6279 38.3063 24.4118 38.0392 24.4099L38.039 24.4099ZM19.2275 31.66C19.2032 31.6618 19.1804 31.6635 19.1576 31.6635C18.3225 31.6521 17.6454 30.9696 17.6454 30.1317C17.6454 29.5801 18.4504 28.3099 19.1764 27.3525C19.9024 28.3099 20.7074 29.58 20.7074 30.1317C20.7074 30.9564 20.051 31.6293 19.2328 31.6597L19.2328 31.6597L19.2275 31.66ZM21.6684 30.1299C21.6684 30.274 21.6496 30.4105 21.6271 30.547L21.627 30.5471C22.1781 29.9404 22.5166 29.1384 22.5129 28.2569C22.5129 26.8028 20.3236 23.7088 19.1162 22.1694C17.9106 23.7088 15.7195 26.8047 15.7195 28.2569C15.7195 29.2124 16.1163 30.0769 16.7501 30.6968C16.7088 30.5129 16.6805 30.3252 16.6805 30.1299C16.6805 28.9014 18.4504 26.6928 18.804 26.2624C18.9864 26.0406 19.3626 26.0406 19.545 26.2624C19.9005 26.6928 21.6684 28.9015 21.6684 30.1299ZM19.4905 21.089C19.3081 20.8672 18.9319 20.8672 18.7494 21.089C18.3413 21.5838 14.7603 25.997 14.7603 28.2571C14.7603 28.3332 14.7651 28.4083 14.7699 28.4832V28.4832C14.7718 28.5127 14.7737 28.5423 14.7753 28.5718H9.9268V25.3717C10.555 24.8598 12.637 23.0854 14.7455 20.4521C16.457 18.3156 18.4111 15.2956 19.297 11.8528C20.1828 15.2974 22.1369 18.3152 23.8485 20.4521C25.9568 23.0853 28.0388 24.8597 28.6671 25.3717V28.5718H23.4628L23.4628 28.5717C23.4703 28.4675 23.4778 28.3632 23.4778 28.2571C23.4797 25.9974 19.8987 21.584 19.4906 21.089H19.4905ZM29.6278 28.5717H33.8483L33.8508 23.7204L19.2802 2.06116L4.70959 23.7204V28.5717H8.96203V25.1365C8.96203 24.9849 9.03162 24.8427 9.15011 24.7517L9.15046 24.7514C9.26693 24.6594 18.8135 17.1171 18.8135 8.19024C18.8135 7.92294 19.0297 7.70493 19.2949 7.70493C19.5601 7.70493 19.7764 7.92294 19.7764 8.19024C19.7764 17.1141 29.3166 24.6543 29.4393 24.7513L29.4398 24.7517C29.5582 24.8446 29.6278 24.9868 29.6278 25.1365V28.5717Z" fill="white"/>
<path fill-rule="evenodd" clip-rule="evenodd" d="M26.5961 34.4329C26.6393 34.5543 26.6299 34.6908 26.5735 34.8064L26.5738 34.8064C26.5155 34.9239 26.4158 35.013 26.2917 35.0547L24.5106 35.6481L26.2221 36.1353C26.3463 36.1713 26.4516 36.2548 26.5137 36.3685C26.5757 36.4822 26.5889 36.6149 26.5532 36.7401L25.9382 38.8292C25.8761 39.0396 25.6861 39.1761 25.4774 39.1761C25.4341 39.1761 25.389 39.1685 25.3457 39.1571L19.2179 37.4111L13.5942 39.286C13.5453 39.3031 13.4945 39.3107 13.4437 39.3107C13.2444 39.3107 13.0582 39.1855 12.9923 38.9846L12.2832 36.9239C12.24 36.8026 12.2494 36.6661 12.3058 36.5505C12.3622 36.4329 12.4638 36.3457 12.5861 36.304L14.0719 35.8093L12.287 35.3012C12.1629 35.2652 12.0576 35.1818 11.9955 35.068C11.9334 34.9543 11.9203 34.8216 11.956 34.6965L12.571 32.6074C12.6462 32.3514 12.9095 32.2055 13.1634 32.2775L19.3645 34.0443L25.2814 32.0708C25.5315 31.9874 25.8005 32.122 25.887 32.3723L26.5961 34.4329ZM13.3592 33.3411L13.0169 34.4994L15.7026 35.2653L17.7339 34.5885L13.3592 33.3411ZM25.4902 36.9353L25.1479 38.0938L20.8484 36.867L22.8796 36.1902L25.4902 36.9353ZM13.3499 37.0718L13.743 38.215L25.5263 34.2869L25.1332 33.1437L13.3499 37.0718Z" fill="white"/>
</svg>
