<svg width="52" height="33" viewBox="0 0 52 33" fill="none" xmlns="http://www.w3.org/2000/svg">
<path fill-rule="evenodd" clip-rule="evenodd" d="M49.75 22.2762V25.0227L49.7496 25.0228C50.3199 25.1388 50.7496 25.6394 50.7496 26.2347V27.2223C50.7496 27.8215 50.3199 28.3201 49.7496 28.4361V28.4612H43.1851C42.8218 30.7013 40.8628 32.4196 38.4995 32.4196C36.1362 32.4196 34.1772 30.7013 33.8159 28.4612H16.4349C16.0716 30.7013 14.1127 32.4196 11.7494 32.4196C9.38606 32.4196 7.42514 30.6994 7.06381 28.4612H3.24936L2.50131 28.4632C1.80991 28.4632 1.24936 27.9065 1.24936 27.2242V26.2366C1.24936 25.5524 1.81186 24.9977 2.50131 24.9977H3.24936V13.8669C3.24936 10.4555 6.05411 7.67998 9.50136 7.67998L15.2709 7.67611V5.70274C9.18536 5.12873 4.02891 4.05602 2.46836 2.51173C2.23594 2.28368 2.18125 1.93189 2.33359 1.64391C2.48594 1.35786 2.80627 1.19937 3.13049 1.25736C8.107 2.13869 15.8455 2.25659 22.7555 2.25659C24.2242 2.25659 25.6676 2.25272 27.0543 2.24692C27.407 2.24586 27.7559 2.24466 28.1008 2.24347L28.1009 2.24347L28.101 2.24347L28.1011 2.24347L28.1014 2.24347L28.1016 2.24347L28.1017 2.24347C29.0154 2.24031 29.9005 2.23726 30.7496 2.23726L37.1871 2.23919H37.1891C41.5466 2.23919 44.2302 2.2102 47.7106 2.04205C48.0543 2.02849 48.3727 2.24884 48.4684 2.57934C48.5641 2.90986 48.4176 3.26357 48.1149 3.43172C47.6129 3.71004 46.9879 3.96902 46.2477 4.20869V5.71048C46.2477 6.37924 45.8883 6.95712 45.2848 7.25864C45.0289 7.3862 44.7594 7.44998 44.4918 7.44998C44.1286 7.44998 43.7672 7.33401 43.4547 7.10401L41.0348 5.32781C37.9528 5.77236 34.1365 6.05455 29.7498 6.15505V7.68193L34.9978 7.68C38.3418 7.68 41.4258 8.78749 43.9023 10.6487L44.1074 10.8072C46.1797 12.4209 47.8047 14.5722 48.7676 17.048L48.7734 17.0596L48.7871 17.0925C48.8007 17.1309 48.8155 17.1682 48.8302 17.2052L48.8302 17.2054C48.8429 17.2373 48.8554 17.2691 48.8672 17.3012L49.166 18.0686H49.123C49.5293 19.4022 49.75 20.815 49.75 22.2762ZM36.0001 16.5859H46.9316H46.9319C46.092 14.8716 44.8811 13.3504 43.3791 12.1328H36.0001C35.8654 12.1328 35.7501 12.2468 35.7501 12.3802V16.3385C35.7501 16.4719 35.8654 16.5859 36.0001 16.5859ZM44.75 5.71043C44.75 5.81287 44.7051 5.88632 44.6113 5.9327C44.5176 5.97909 44.4336 5.97136 44.3496 5.90951L43.0918 4.98757C43.6816 4.87547 44.2344 4.75564 44.75 4.63L44.75 5.71043ZM26.0909 3.73612L26.0907 3.73612C25.0042 3.73946 23.8892 3.74289 22.758 3.74289L22.7585 3.74285C18.319 3.74285 13.5376 3.6926 9.33646 3.42395C13.3715 4.17775 19.1745 4.71118 26.0005 4.71118C32.2735 4.71118 37.76 4.34786 41.7424 3.7081C40.385 3.72357 38.9182 3.72936 37.1917 3.72936H37.1897L30.7502 3.72357C29.5823 3.72357 28.3459 3.72743 27.0608 3.73323L26.0909 3.73612ZM16.7715 5.83606C19.7812 6.07379 22.957 6.19556 26 6.19556C26.7636 6.19556 27.5136 6.18976 28.25 6.1801V7.67993H16.7715V5.83606ZM8.49996 27.7191C8.49996 29.4934 9.95702 30.9353 11.75 30.9353C13.5429 30.9353 15 29.4934 15 27.7191C15 25.9448 13.5429 24.5029 11.75 24.5029C9.95702 24.5029 8.49996 25.9448 8.49996 27.7191ZM38.5 30.9353C36.7071 30.9353 35.25 29.4934 35.25 27.7191C35.25 25.9448 36.7071 24.5029 38.5 24.5029C40.2929 24.5029 41.75 25.9448 41.75 27.7191C41.75 29.4934 40.2929 30.9353 38.5 30.9353ZM38.5 23.0187C40.8633 23.0187 42.8242 24.737 43.1856 26.977H49.25V26.4823H44.75V24.9979H48.25V22.2784C48.25 20.8056 48 19.3928 47.5469 18.0707H35.9999C35.035 18.0707 34.2499 17.2938 34.2499 16.339V12.3806C34.2499 11.4258 35.035 10.6488 35.9999 10.6488H41.1114C39.2811 9.70365 37.201 9.16443 34.9979 9.16443H9.50187C6.88077 9.16443 4.74992 11.275 4.74992 13.8669V16.5864H12.2849V18.0707H4.74992V24.9979H5.74992V26.4823H2.74992V26.977H7.06437C7.42767 24.737 9.38662 23.0187 11.7499 23.0187C14.1132 23.0187 16.0741 24.737 16.4355 26.977H33.8145C34.1778 24.737 36.1367 23.0187 38.5 23.0187Z" fill="white"/>
<path d="M49.75 25.0227L49.8336 25.3108L50.05 25.248V25.0227H49.75ZM49.7496 25.0228L49.666 24.7347L49.6898 25.3168L49.7496 25.0228ZM49.7496 28.4361L49.6898 28.1421L49.4496 28.191V28.4361H49.7496ZM49.7496 28.4612V28.7612H50.0496V28.4612H49.7496ZM43.1851 28.4612V28.1612H42.9298L42.8889 28.4132L43.1851 28.4612ZM33.8159 28.4612L34.1121 28.4134L34.0714 28.1612H33.8159V28.4612ZM16.4349 28.4612V28.1612H16.1796L16.1388 28.4132L16.4349 28.4612ZM7.06381 28.4612L7.35997 28.4134L7.31926 28.1612H7.06381V28.4612ZM3.24936 28.4612L3.24936 28.1612L3.24858 28.1612L3.24936 28.4612ZM2.50131 28.4632L2.50131 28.7632L2.50208 28.7632L2.50131 28.4632ZM3.24936 24.9977V25.2977H3.54936V24.9977H3.24936ZM9.50136 7.67998L9.50136 7.97998L9.50156 7.97998L9.50136 7.67998ZM15.2709 7.67611L15.2711 7.97611L15.5709 7.97591V7.67611H15.2709ZM15.2709 5.70274H15.5709V5.4297L15.299 5.40406L15.2709 5.70274ZM2.46836 2.51173L2.67938 2.29848L2.67847 2.29759L2.46836 2.51173ZM2.33359 1.64391L2.06881 1.50289L2.06841 1.50363L2.33359 1.64391ZM3.13049 1.25736L3.07768 1.55267L3.07818 1.55276L3.13049 1.25736ZM27.0543 2.24692L27.0534 1.94692L27.0531 1.94693L27.0543 2.24692ZM28.1008 2.24347L28.1018 2.54347L28.1019 2.54347L28.1008 2.24347ZM28.1011 2.24347L28.1 1.94347L28.1 1.94347L28.1011 2.24347ZM28.1014 2.24347L28.1005 1.94347L28.1004 1.94347L28.1014 2.24347ZM28.1016 2.24347L28.1026 2.54347L28.1028 2.54346L28.1016 2.24347ZM28.1017 2.24347L28.1007 1.94347L28.1006 1.94347L28.1017 2.24347ZM30.7496 2.23726L30.7497 1.93726H30.7496V2.23726ZM37.1871 2.23919L37.1871 2.53919H37.1871V2.23919ZM47.7106 2.04205L47.6988 1.74227L47.6961 1.7424L47.7106 2.04205ZM48.4684 2.57934L48.7566 2.4959L48.7566 2.4959L48.4684 2.57934ZM48.1149 3.43172L48.2604 3.69409L48.2606 3.69398L48.1149 3.43172ZM46.2477 4.20869L46.1553 3.92328L45.9477 3.99049V4.20869H46.2477ZM45.2848 7.25864L45.4186 7.52711L45.4189 7.527L45.2848 7.25864ZM43.4547 7.10401L43.6326 6.8624L43.6322 6.86217L43.4547 7.10401ZM41.0348 5.32781L41.2123 5.08597L41.1134 5.01337L40.992 5.03088L41.0348 5.32781ZM29.7498 6.15505L29.743 5.85513L29.4498 5.86185V6.15505H29.7498ZM29.7498 7.68193H29.4498V7.98204L29.7499 7.98193L29.7498 7.68193ZM34.9978 7.68L34.9978 7.38L34.9977 7.38L34.9978 7.68ZM43.9023 10.6487L44.0858 10.4113L44.0826 10.4089L43.9023 10.6487ZM44.1074 10.8072L44.2917 10.5705L44.2909 10.5699L44.1074 10.8072ZM48.7676 17.048L48.488 17.1568L48.4932 17.1703L48.4998 17.1833L48.7676 17.048ZM48.7734 17.0596L49.0504 16.9444L49.0462 16.9342L49.0412 16.9243L48.7734 17.0596ZM48.7871 17.0925L49.0698 16.9921L49.0671 16.9846L49.0641 16.9772L48.7871 17.0925ZM48.8302 17.2052L48.5512 17.3156L48.5516 17.3166L48.8302 17.2052ZM48.8302 17.2054L49.1092 17.0949L49.1088 17.094L48.8302 17.2054ZM48.8672 17.3012L48.5853 17.4041L48.5876 17.4101L48.8672 17.3012ZM49.166 18.0686V18.3686H49.6048L49.4456 17.9597L49.166 18.0686ZM49.123 18.0686V17.7686H48.718L48.8361 18.156L49.123 18.0686ZM46.9319 16.5859V16.8859H47.4129L47.2013 16.454L46.9319 16.5859ZM43.3791 12.1328L43.5681 11.8998L43.4855 11.8328H43.3791V12.1328ZM44.6113 5.9327L44.4783 5.66382L44.4783 5.66382L44.6113 5.9327ZM44.75 5.71043L44.45 5.71043V5.71043H44.75ZM44.3496 5.90951L44.5275 5.66794L44.527 5.66755L44.3496 5.90951ZM43.0918 4.98757L43.0358 4.69284L42.358 4.82166L42.9144 5.22953L43.0918 4.98757ZM44.75 4.63L45.05 4.63001L45.05 4.24813L44.679 4.33853L44.75 4.63ZM26.0907 3.73612L26.0916 4.03612L26.0918 4.03612L26.0907 3.73612ZM26.0909 3.73612L26.09 3.43612L26.0898 3.43612L26.0909 3.73612ZM22.758 3.74289L22.7309 3.44412L22.758 4.04289V3.74289ZM22.7585 3.74285L22.7856 4.04163L22.7585 3.44285V3.74285ZM9.33646 3.42395L9.35561 3.12456L9.28137 3.71885L9.33646 3.42395ZM41.7424 3.7081L41.79 4.00431L41.739 3.40812L41.7424 3.7081ZM37.1897 3.72936L37.1894 4.02936H37.1897V3.72936ZM30.7502 3.72357L30.7505 3.42357H30.7502V3.72357ZM27.0608 3.73323L27.0616 4.03323L27.0621 4.03323L27.0608 3.73323ZM16.7715 5.83606L16.7951 5.53699L16.4715 5.51143V5.83606H16.7715ZM28.25 6.1801H28.55V5.87613L28.246 5.88012L28.25 6.1801ZM28.25 7.67993V7.97993H28.55V7.67993H28.25ZM16.7715 7.67993H16.4715V7.97993H16.7715V7.67993ZM43.1856 26.977L42.8894 27.0248L42.9301 27.277H43.1856V26.977ZM49.25 26.977V27.277H49.55V26.977H49.25ZM49.25 26.4823H49.55V26.1823H49.25V26.4823ZM44.75 26.4823H44.45V26.7823H44.75V26.4823ZM44.75 24.9979V24.6979H44.45V24.9979H44.75ZM48.25 24.9979V25.2979H48.55V24.9979H48.25ZM47.5469 18.0707L47.8307 17.9735L47.7612 17.7707H47.5469V18.0707ZM41.1114 10.6488V10.9488L41.249 10.3823L41.1114 10.6488ZM4.74992 16.5864H4.44992V16.8864H4.74992V16.5864ZM12.2849 16.5864H12.5849V16.2864H12.2849V16.5864ZM12.2849 18.0707V18.3707H12.5849V18.0707H12.2849ZM4.74992 18.0707V17.7707H4.44992V18.0707H4.74992ZM4.74992 24.9979H4.44992V25.2979H4.74992V24.9979ZM5.74992 24.9979H6.04992V24.6979H5.74992V24.9979ZM5.74992 26.4823V26.7823H6.04992V26.4823H5.74992ZM2.74992 26.4823V26.1823H2.44992V26.4823H2.74992ZM2.74992 26.977H2.44992V27.277H2.74992V26.977ZM7.06437 26.977V27.277H7.31964L7.3605 27.0251L7.06437 26.977ZM16.4355 26.977L16.1393 27.0248L16.18 27.277H16.4355V26.977ZM33.8145 26.977V27.277H34.0697L34.1106 27.0251L33.8145 26.977ZM50.05 25.0227V22.2762H49.45V25.0227H50.05ZM49.8332 25.3109L49.8336 25.3108L49.6664 24.7346L49.666 24.7347L49.8332 25.3109ZM51.0496 26.2347C51.0496 25.4913 50.5141 24.8722 49.8093 24.7288L49.6898 25.3168C50.1257 25.4055 50.4496 25.7875 50.4496 26.2347H51.0496ZM51.0496 27.2223V26.2347H50.4496V27.2223H51.0496ZM49.8093 28.7301C50.514 28.5868 51.0496 27.9695 51.0496 27.2223H50.4496C50.4496 27.6734 50.1257 28.0535 49.6898 28.1421L49.8093 28.7301ZM50.0496 28.4612V28.4361H49.4496V28.4612H50.0496ZM43.1851 28.7612H49.7496V28.1612H43.1851V28.7612ZM38.4995 32.7196C41.011 32.7196 43.0945 30.8935 43.4812 28.5093L42.8889 28.4132C42.549 30.5091 40.7146 32.1196 38.4995 32.1196V32.7196ZM33.5197 28.509C33.9044 30.8935 35.9881 32.7196 38.4995 32.7196V32.1196C36.2844 32.1196 34.4501 30.509 34.1121 28.4134L33.5197 28.509ZM16.4349 28.7612H33.8159V28.1612H16.4349V28.7612ZM11.7494 32.7196C14.2609 32.7196 16.3444 30.8935 16.731 28.5093L16.1388 28.4132C15.7989 30.5091 13.9645 32.1196 11.7494 32.1196V32.7196ZM6.76764 28.509C7.1523 30.8917 9.23796 32.7196 11.7494 32.7196V32.1196C9.53416 32.1196 7.69798 30.5071 7.35997 28.4134L6.76764 28.509ZM3.24936 28.7612H7.06381V28.1612H3.24936V28.7612ZM2.50208 28.7632L3.25013 28.7612L3.24858 28.1612L2.50053 28.1632L2.50208 28.7632ZM0.949359 27.2242C0.949359 28.0749 1.64689 28.7632 2.50131 28.7632V28.1632C1.97293 28.1632 1.54936 27.7382 1.54936 27.2242H0.949359ZM0.949359 26.2366V27.2242H1.54936V26.2366H0.949359ZM2.50131 24.6977C1.64945 24.6977 0.949359 25.3835 0.949359 26.2366H1.54936C1.54936 25.7213 1.97427 25.2977 2.50131 25.2977V24.6977ZM3.24936 24.6977H2.50131V25.2977H3.24936V24.6977ZM2.94936 13.8669V24.9977H3.54936V13.8669H2.94936ZM9.50136 7.37998C5.8914 7.37998 2.94936 10.2868 2.94936 13.8669H3.54936C3.54936 10.6241 6.21682 7.97998 9.50136 7.97998V7.37998ZM15.2707 7.37611L9.50116 7.37998L9.50156 7.97998L15.2711 7.97611L15.2707 7.37611ZM14.9709 5.70274V7.67611H15.5709V5.70274H14.9709ZM2.25734 2.72497C2.68839 3.15152 3.34532 3.52614 4.15766 3.85873C4.97481 4.19329 5.97193 4.49433 7.10346 4.76298C9.36679 5.30032 12.1923 5.71368 15.2427 6.00141L15.299 5.40406C12.264 5.11778 9.46846 4.70778 7.24205 4.1792C6.12871 3.91488 5.16377 3.62231 4.385 3.30347C3.60144 2.98266 3.02861 2.64408 2.67938 2.29849L2.25734 2.72497ZM2.06841 1.50363C1.85402 1.90891 1.93108 2.40485 2.25825 2.72586L2.67847 2.29759C2.5408 2.16251 2.50848 1.95488 2.59878 1.78419L2.06841 1.50363ZM3.18331 0.962041C2.73015 0.880997 2.28196 1.10268 2.06881 1.50289L2.59838 1.78493C2.68993 1.61304 2.8824 1.51774 3.07768 1.55267L3.18331 0.962041ZM22.7555 1.95659C15.8392 1.95659 8.12846 1.83782 3.18281 0.961952L3.07818 1.55276C8.08553 2.43955 15.8518 2.55659 22.7555 2.55659V1.95659ZM27.0531 1.94693C25.6667 1.95272 24.2237 1.95659 22.7555 1.95659V2.55659C24.2248 2.55659 25.6686 2.55272 27.0556 2.54692L27.0531 1.94693ZM28.0997 1.94347C27.7548 1.94466 27.406 1.94587 27.0534 1.94692L27.0552 2.54692C27.4079 2.54586 27.7569 2.54466 28.1018 2.54347L28.0997 1.94347ZM28.0998 1.94347L28.0997 1.94347L28.1019 2.54347L28.102 2.54347L28.0998 1.94347ZM28.0999 1.94347L28.0998 1.94347L28.102 2.54347L28.1021 2.54347L28.0999 1.94347ZM28.1 1.94347L28.0999 1.94347L28.1021 2.54347L28.1022 2.54347L28.1 1.94347ZM28.1004 1.94347L28.1 1.94347L28.1021 2.54347L28.1025 2.54347L28.1004 1.94347ZM28.1007 1.94347L28.1005 1.94347L28.1024 2.54347L28.1026 2.54347L28.1007 1.94347ZM28.1006 1.94347L28.1005 1.94347L28.1028 2.54346L28.1029 2.54346L28.1006 1.94347ZM30.7496 1.93726C29.8999 1.93726 29.0143 1.94032 28.1007 1.94347L28.1028 2.54346C29.0166 2.54031 29.9012 2.53726 30.7496 2.53726V1.93726ZM37.1872 1.93919L30.7497 1.93726L30.7496 2.53726L37.1871 2.53919L37.1872 1.93919ZM37.1891 1.93919H37.1871V2.53919H37.1891V1.93919ZM47.6961 1.7424C44.2229 1.9102 41.545 1.93919 37.1891 1.93919V2.53919C41.5482 2.53919 44.2374 2.5102 47.7251 2.3417L47.6961 1.7424ZM48.7566 2.4959C48.6209 2.0274 48.1746 1.72352 47.6988 1.74228L47.7224 2.34181C47.9341 2.33346 48.1245 2.47027 48.1802 2.66278L48.7566 2.4959ZM48.2606 3.69398C48.6847 3.45841 48.8915 2.96178 48.7566 2.4959L48.1802 2.66278C48.2367 2.85795 48.1506 3.06873 47.9692 3.16946L48.2606 3.69398ZM46.3401 4.4941C47.0922 4.25059 47.7364 3.9846 48.2604 3.69409L47.9694 3.16935C47.4895 3.43548 46.8836 3.68746 46.1553 3.92328L46.3401 4.4941ZM46.5477 5.71048V4.20869H45.9477V5.71048H46.5477ZM45.4189 7.527C46.1229 7.17525 46.5477 6.49416 46.5477 5.71048H45.9477C45.9477 6.26432 45.6537 6.73899 45.1507 6.99027L45.4189 7.527ZM44.4918 7.74998C44.8077 7.74998 45.1229 7.67459 45.4186 7.52711L45.1509 6.99016C44.935 7.0978 44.7112 7.14998 44.4918 7.14998V7.74998ZM43.2769 7.34563C43.6403 7.6131 44.0639 7.74998 44.4918 7.74998V7.14998C44.1933 7.14998 43.8941 7.05492 43.6326 6.8624L43.2769 7.34563ZM40.8573 5.56965L43.2772 7.34586L43.6322 6.86217L41.2123 5.08597L40.8573 5.56965ZM29.7567 6.45497C34.1512 6.35429 37.9802 6.07152 41.0777 5.62474L40.992 5.03088C37.9255 5.4732 34.1218 5.75481 29.743 5.85513L29.7567 6.45497ZM30.0498 7.68193V6.15505H29.4498V7.68193H30.0498ZM34.9977 7.38L29.7497 7.38193L29.7499 7.98193L34.9979 7.98L34.9977 7.38ZM44.0826 10.4089C41.5559 8.51001 38.4092 7.38 34.9978 7.38V7.98C38.2745 7.98 41.2957 9.06496 43.7221 10.8886L44.0826 10.4089ZM44.2909 10.5699L44.0858 10.4114L43.7189 10.8861L43.924 11.0446L44.2909 10.5699ZM49.0472 16.9393C48.0642 14.4119 46.4058 12.2168 44.2917 10.5705L43.9231 11.0439C45.9535 12.6251 47.5451 14.7324 48.488 17.1568L49.0472 16.9393ZM49.0412 16.9243L49.0353 16.9127L48.4998 17.1833L48.5057 17.1949L49.0412 16.9243ZM49.0641 16.9772L49.0504 16.9444L48.4964 17.1749L48.5101 17.2077L49.0641 16.9772ZM49.1091 17.0948C49.0941 17.057 49.0814 17.0246 49.0698 16.9921L48.5044 17.1929C48.5201 17.2371 48.5368 17.2793 48.5512 17.3156L49.1091 17.0948ZM49.1088 17.094L49.1087 17.0938L48.5516 17.3166L48.5517 17.3168L49.1088 17.094ZM49.149 17.1984C49.1356 17.1618 49.1215 17.1262 49.1092 17.0949L48.5513 17.3158C48.5642 17.3484 48.5752 17.3764 48.5854 17.4041L49.149 17.1984ZM49.4456 17.9597L49.1467 17.1924L48.5876 17.4101L48.8865 18.1774L49.4456 17.9597ZM49.123 18.3686H49.166V17.7686H49.123V18.3686ZM50.05 22.2762C50.05 20.7847 49.8247 19.3424 49.41 17.9811L48.8361 18.156C49.2339 19.462 49.45 20.8454 49.45 22.2762H50.05ZM46.9316 16.2859H36.0001V16.8859H46.9316V16.2859ZM46.9319 16.2859H46.9316V16.8859H46.9319V16.2859ZM43.1902 12.3658C44.6585 13.5562 45.8419 15.0429 46.6625 16.7179L47.2013 16.454C46.3422 14.7003 45.1037 13.1447 43.5681 11.8998L43.1902 12.3658ZM36.0001 12.4328H43.3791V11.8328H36.0001V12.4328ZM36.0501 12.3802C36.0501 12.4012 36.0413 12.4141 36.0356 12.4197C36.0299 12.4254 36.0183 12.4328 36.0001 12.4328V11.8328C35.7027 11.8328 35.4501 12.0782 35.4501 12.3802H36.0501ZM36.0501 16.3385V12.3802H35.4501V16.3385H36.0501ZM36.0001 16.2859C36.0183 16.2859 36.0299 16.2934 36.0356 16.299C36.0413 16.3046 36.0501 16.3175 36.0501 16.3385H35.4501C35.4501 16.6405 35.7027 16.8859 36.0001 16.8859V16.2859ZM44.7444 6.20159C44.8315 6.15849 44.9129 6.09389 44.9707 6.00082C45.0285 5.90775 45.05 5.80651 45.05 5.71043H44.45C44.45 5.71416 44.4496 5.71248 44.451 5.70696C44.4525 5.70109 44.4556 5.693 44.4609 5.68435C44.4663 5.6757 44.4721 5.66948 44.4766 5.66567C44.4807 5.6621 44.4821 5.66193 44.4783 5.66382L44.7444 6.20159ZM44.1717 6.15108C44.248 6.20726 44.3411 6.25076 44.4501 6.2605C44.5591 6.27026 44.6588 6.24393 44.7444 6.20159L44.4783 5.66382C44.4737 5.66608 44.4742 5.66521 44.4793 5.66411C44.4849 5.66292 44.4933 5.66198 44.5035 5.66289C44.5137 5.6638 44.5218 5.66621 44.5268 5.66829C44.5315 5.67022 44.5317 5.67107 44.5275 5.66794L44.1717 6.15108ZM42.9144 5.22953L44.1722 6.15147L44.527 5.66755L43.2691 4.7456L42.9144 5.22953ZM44.679 4.33853C44.1686 4.46288 43.6209 4.58164 43.0358 4.69284L43.1478 5.28229C43.7424 5.16929 44.3002 5.04839 44.821 4.92148L44.679 4.33853ZM45.05 5.71044L45.05 4.63001L44.45 4.63L44.45 5.71043L45.05 5.71044ZM26.0918 4.03612L26.092 4.03612L26.0898 3.43612L26.0896 3.43612L26.0918 4.03612ZM22.758 4.04289C23.8897 4.04289 25.0052 4.03946 26.0916 4.03612L26.0897 3.43612C25.0032 3.43946 23.8887 3.44289 22.758 3.44289V4.04289ZM22.7314 3.44408L22.7309 3.44412L22.7851 4.04167L22.7856 4.04163L22.7314 3.44408ZM9.31732 3.72334C13.5286 3.99264 18.3181 4.04285 22.7585 4.04285V3.44285C18.3198 3.44285 13.5466 3.39256 9.35561 3.12456L9.31732 3.72334ZM26.0005 4.41118C19.188 4.41118 13.4041 3.87867 9.39156 3.12905L9.28137 3.71885C13.3388 4.47684 19.1609 5.01118 26.0005 5.01118V4.41118ZM41.6949 3.4119C37.7337 4.04825 32.2643 4.41118 26.0005 4.41118V5.01118C32.2826 5.01118 37.7864 4.64747 41.79 4.00431L41.6949 3.4119ZM37.1917 4.02936C38.9188 4.02936 40.3868 4.02356 41.7459 4.00808L41.739 3.40812C40.3831 3.42357 38.9176 3.42936 37.1917 3.42936V4.02936ZM37.1897 4.02936H37.1917V3.42936H37.1897V4.02936ZM30.7499 4.02357L37.1894 4.02936L37.19 3.42936L30.7505 3.42357L30.7499 4.02357ZM27.0621 4.03323C28.347 4.02743 29.5829 4.02357 30.7502 4.02357V3.42357C29.5816 3.42357 28.3448 3.42743 27.0594 3.43323L27.0621 4.03323ZM26.0918 4.03612L27.0616 4.03323L27.0599 3.43323L26.09 3.43612L26.0918 4.03612ZM26 5.89556C22.9646 5.89556 19.7968 5.77408 16.7951 5.53699L16.7479 6.13513C19.7657 6.3735 22.9494 6.49556 26 6.49556V5.89556ZM28.246 5.88012C27.5108 5.88977 26.7621 5.89556 26 5.89556V6.49556C26.7651 6.49556 27.5165 6.48975 28.2539 6.48007L28.246 5.88012ZM28.55 7.67993V6.1801H27.95V7.67993H28.55ZM16.7715 7.97993H28.25V7.37993H16.7715V7.97993ZM16.4715 5.83606V7.67993H17.0715V5.83606H16.4715ZM11.75 30.6353C10.1197 30.6353 8.79996 29.3248 8.79996 27.7191H8.19996C8.19996 29.662 9.7943 31.2353 11.75 31.2353V30.6353ZM14.7 27.7191C14.7 29.3248 13.3802 30.6353 11.75 30.6353V31.2353C13.7056 31.2353 15.3 29.662 15.3 27.7191H14.7ZM11.75 24.8029C13.3802 24.8029 14.7 26.1135 14.7 27.7191H15.3C15.3 25.7762 13.7056 24.2029 11.75 24.2029V24.8029ZM8.79996 27.7191C8.79996 26.1135 10.1197 24.8029 11.75 24.8029V24.2029C9.7943 24.2029 8.19996 25.7762 8.19996 27.7191H8.79996ZM34.95 27.7191C34.95 29.662 36.5443 31.2353 38.5 31.2353V30.6353C36.8698 30.6353 35.55 29.3248 35.55 27.7191H34.95ZM38.5 24.2029C36.5443 24.2029 34.95 25.7762 34.95 27.7191H35.55C35.55 26.1135 36.8698 24.8029 38.5 24.8029V24.2029ZM42.05 27.7191C42.05 25.7762 40.4557 24.2029 38.5 24.2029V24.8029C40.1302 24.8029 41.45 26.1135 41.45 27.7191H42.05ZM38.5 31.2353C40.4557 31.2353 42.05 29.662 42.05 27.7191H41.45C41.45 29.3248 40.1302 30.6353 38.5 30.6353V31.2353ZM43.4817 26.9293C43.0971 24.5446 41.0113 22.7187 38.5 22.7187V23.3187C40.7153 23.3187 42.5514 24.9294 42.8894 27.0248L43.4817 26.9293ZM49.25 26.677H43.1856V27.277H49.25V26.677ZM48.95 26.4823V26.977H49.55V26.4823H48.95ZM44.75 26.7823H49.25V26.1823H44.75V26.7823ZM44.45 24.9979V26.4823H45.05V24.9979H44.45ZM48.25 24.6979H44.75V25.2979H48.25V24.6979ZM47.95 22.2784V24.9979H48.55V22.2784H47.95ZM47.2631 18.168C47.7058 19.4599 47.95 20.8399 47.95 22.2784H48.55C48.55 20.7714 48.2941 19.3257 47.8307 17.9735L47.2631 18.168ZM35.9999 18.3707H47.5469V17.7707H35.9999V18.3707ZM33.9499 16.339C33.9499 17.4624 34.8723 18.3707 35.9999 18.3707V17.7707C35.1977 17.7707 34.5499 17.1251 34.5499 16.339H33.9499ZM33.9499 12.3806V16.339H34.5499V12.3806H33.9499ZM35.9999 10.3488C34.8723 10.3488 33.9499 11.2572 33.9499 12.3806H34.5499C34.5499 11.5944 35.1977 10.9488 35.9999 10.9488V10.3488ZM41.1114 10.3488H35.9999V10.9488H41.1114V10.3488ZM34.9979 9.46443C37.1515 9.46443 39.1846 9.99147 40.9737 10.9154L41.249 10.3823C39.3776 9.41584 37.2504 8.86443 34.9979 8.86443V9.46443ZM9.50187 9.46443H34.9979V8.86443H9.50187V9.46443ZM5.04992 13.8669C5.04992 11.4436 7.04357 9.46443 9.50187 9.46443V8.86443C6.71797 8.86443 4.44992 11.1065 4.44992 13.8669H5.04992ZM5.04992 16.5864V13.8669H4.44992V16.5864H5.04992ZM12.2849 16.2864H4.74992V16.8864H12.2849V16.2864ZM12.5849 18.0707V16.5864H11.9849V18.0707H12.5849ZM4.74992 18.3707H12.2849V17.7707H4.74992V18.3707ZM5.04992 24.9979V18.0707H4.44992V24.9979H5.04992ZM5.74992 24.6979H4.74992V25.2979H5.74992V24.6979ZM6.04992 26.4823V24.9979H5.44992V26.4823H6.04992ZM2.74992 26.7823H5.74992V26.1823H2.74992V26.7823ZM3.04992 26.977V26.4823H2.44992V26.977H3.04992ZM7.06437 26.677H2.74992V27.277H7.06437V26.677ZM11.7499 22.7187C9.23843 22.7187 7.15493 24.5447 6.76824 26.929L7.3605 27.0251C7.70041 24.9292 9.53482 23.3187 11.7499 23.3187V22.7187ZM16.7316 26.9293C16.347 24.5446 14.2612 22.7187 11.7499 22.7187V23.3187C13.9652 23.3187 15.8013 24.9294 16.1393 27.0248L16.7316 26.9293ZM33.8145 26.677H16.4355V27.277H33.8145V26.677ZM38.5 22.7187C35.9885 22.7187 33.905 24.5447 33.5183 26.929L34.1106 27.0251C34.4505 24.9292 36.2849 23.3187 38.5 23.3187V22.7187Z" fill="#222532"/>
<path fill-rule="evenodd" clip-rule="evenodd" d="M23.75 12.3803V16.3385C23.75 17.2932 22.9649 18.0702 22 18.0702H17C16.0352 18.0702 15.25 17.2932 15.25 16.3385V12.3803C15.25 11.4255 16.0352 10.6486 17 10.6486H22C22.9649 10.6486 23.75 11.4255 23.75 12.3803ZM16.75 12.3802V16.3385C16.75 16.4738 16.8652 16.5859 17 16.5859H22C22.1348 16.5859 22.25 16.4719 22.25 16.3385V12.3802C22.25 12.2468 22.1348 12.1328 22 12.1328H17C16.8652 12.1328 16.75 12.2468 16.75 12.3802Z" fill="white"/>
<path d="M24.05 16.3385V12.3803H23.45V16.3385H24.05ZM22 18.3702C23.1276 18.3702 24.05 17.4619 24.05 16.3385H23.45C23.45 17.1246 22.8022 17.7702 22 17.7702V18.3702ZM17 18.3702H22V17.7702H17V18.3702ZM14.95 16.3385C14.95 17.4619 15.8724 18.3702 17 18.3702V17.7702C16.1979 17.7702 15.55 17.1246 15.55 16.3385H14.95ZM14.95 12.3803V16.3385H15.55V12.3803H14.95ZM17 10.3486C15.8724 10.3486 14.95 11.2569 14.95 12.3803H15.55C15.55 11.5942 16.1979 10.9486 17 10.9486V10.3486ZM22 10.3486H17V10.9486H22V10.3486ZM24.05 12.3803C24.05 11.2569 23.1276 10.3486 22 10.3486V10.9486C22.8022 10.9486 23.45 11.5942 23.45 12.3803H24.05ZM17.05 16.3385V12.3802H16.45V16.3385H17.05ZM17 16.2859C17.0167 16.2859 17.0283 16.2927 17.0349 16.2992C17.0417 16.3059 17.05 16.3192 17.05 16.3385H16.45C16.45 16.644 16.704 16.8859 17 16.8859V16.2859ZM22 16.2859H17V16.8859H22V16.2859ZM21.95 16.3385C21.95 16.3175 21.9589 16.3046 21.9645 16.299C21.9702 16.2934 21.9818 16.2859 22 16.2859V16.8859C22.2975 16.8859 22.55 16.6405 22.55 16.3385H21.95ZM21.95 12.3802V16.3385H22.55V12.3802H21.95ZM22 12.4328C21.9818 12.4328 21.9702 12.4254 21.9645 12.4197C21.9589 12.4141 21.95 12.4012 21.95 12.3802H22.55C22.55 12.0782 22.2975 11.8328 22 11.8328V12.4328ZM17 12.4328H22V11.8328H17V12.4328ZM17.05 12.3802C17.05 12.4012 17.0411 12.4141 17.0355 12.4197C17.0298 12.4254 17.0182 12.4328 17 12.4328V11.8328C16.7025 11.8328 16.45 12.0782 16.45 12.3802H17.05Z" fill="#222532"/>
<path fill-rule="evenodd" clip-rule="evenodd" d="M26.5 10.6486H31.5C32.4648 10.6486 33.25 11.4255 33.25 12.3803V16.3385C33.25 17.2932 32.4648 18.0702 31.5 18.0702H26.5C25.5351 18.0702 24.75 17.2932 24.75 16.3385V12.3803C24.75 11.4255 25.5351 10.6486 26.5 10.6486ZM31.5 16.5859C31.6347 16.5859 31.75 16.4719 31.75 16.3385V12.3802C31.75 12.2468 31.6347 12.1328 31.5 12.1328H26.5C26.3652 12.1328 26.25 12.2468 26.25 12.3802V16.3385C26.25 16.4719 26.3652 16.5859 26.5 16.5859H31.5Z" fill="white"/>
<path d="M31.5 10.3486H26.5V10.9486H31.5V10.3486ZM33.55 12.3803C33.55 11.2569 32.6276 10.3486 31.5 10.3486V10.9486C32.3021 10.9486 32.95 11.5942 32.95 12.3803H33.55ZM33.55 16.3385V12.3803H32.95V16.3385H33.55ZM31.5 18.3702C32.6276 18.3702 33.55 17.4619 33.55 16.3385H32.95C32.95 17.1246 32.3021 17.7702 31.5 17.7702V18.3702ZM26.5 18.3702H31.5V17.7702H26.5V18.3702ZM24.45 16.3385C24.45 17.4619 25.3724 18.3702 26.5 18.3702V17.7702C25.6979 17.7702 25.05 17.1246 25.05 16.3385H24.45ZM24.45 12.3803V16.3385H25.05V12.3803H24.45ZM26.5 10.3486C25.3724 10.3486 24.45 11.2569 24.45 12.3803H25.05C25.05 11.5942 25.6979 10.9486 26.5 10.9486V10.3486ZM31.45 16.3385C31.45 16.3175 31.4588 16.3046 31.4645 16.299C31.4702 16.2934 31.4818 16.2859 31.5 16.2859V16.8859C31.7975 16.8859 32.05 16.6405 32.05 16.3385H31.45ZM31.45 12.3802V16.3385H32.05V12.3802H31.45ZM31.5 12.4328C31.4818 12.4328 31.4702 12.4254 31.4645 12.4197C31.4588 12.4141 31.45 12.4012 31.45 12.3802H32.05C32.05 12.0782 31.7975 11.8328 31.5 11.8328V12.4328ZM26.5 12.4328H31.5V11.8328H26.5V12.4328ZM26.55 12.3802C26.55 12.4012 26.5411 12.4141 26.5355 12.4197C26.5298 12.4254 26.5182 12.4328 26.5 12.4328V11.8328C26.2025 11.8328 25.95 12.0782 25.95 12.3802H26.55ZM26.55 16.3385V12.3802H25.95V16.3385H26.55ZM26.5 16.2859C26.5182 16.2859 26.5298 16.2934 26.5355 16.299C26.5411 16.3046 26.55 16.3175 26.55 16.3385H25.95C25.95 16.6405 26.2025 16.8859 26.5 16.8859V16.2859ZM31.5 16.2859H26.5V16.8859H31.5V16.2859Z" fill="#222532"/>
<path fill-rule="evenodd" clip-rule="evenodd" d="M36.5 27.7188C36.5 26.6268 37.3965 25.7396 38.5 25.7396C39.6035 25.7396 40.5 26.6287 40.5 27.7188C40.5 28.8108 39.6035 29.698 38.5 29.698C37.3965 29.698 36.5 28.8108 36.5 27.7188ZM38 27.7188C38 27.9912 38.2246 28.2135 38.5 28.2135C38.7754 28.2135 39 27.9912 39 27.7188C39 27.4463 38.7754 27.224 38.5 27.224C38.2246 27.224 38 27.4463 38 27.7188Z" fill="white"/>
<path d="M38.5 25.4396C37.2338 25.4396 36.2 26.4582 36.2 27.7188H36.8C36.8 26.7954 37.5592 26.0396 38.5 26.0396V25.4396ZM40.8 27.7188C40.8 26.4603 39.7664 25.4396 38.5 25.4396V26.0396C39.4406 26.0396 40.2 26.7972 40.2 27.7188H40.8ZM38.5 29.998C39.7662 29.998 40.8 28.9795 40.8 27.7188H40.2C40.2 28.6422 39.4408 29.398 38.5 29.398V29.998ZM36.2 27.7188C36.2 28.9795 37.2338 29.998 38.5 29.998V29.398C37.5592 29.398 36.8 28.6422 36.8 27.7188H36.2ZM38.5 27.9135C38.3873 27.9135 38.3 27.8226 38.3 27.7188H37.7C37.7 28.1599 38.0619 28.5135 38.5 28.5135V27.9135ZM38.7 27.7188C38.7 27.8226 38.6127 27.9135 38.5 27.9135V28.5135C38.9381 28.5135 39.3 28.1599 39.3 27.7188H38.7ZM38.5 27.524C38.6127 27.524 38.7 27.6149 38.7 27.7188H39.3C39.3 27.2776 38.9381 26.924 38.5 26.924V27.524ZM38.3 27.7188C38.3 27.6149 38.3873 27.524 38.5 27.524V26.924C38.0619 26.924 37.7 27.2776 37.7 27.7188H38.3Z" fill="#222532"/>
<path fill-rule="evenodd" clip-rule="evenodd" d="M9.75 27.7188C9.75 26.6268 10.6465 25.7396 11.75 25.7396C12.8535 25.7396 13.75 26.6287 13.75 27.7188C13.75 28.8108 12.8535 29.698 11.75 29.698C10.6465 29.698 9.75 28.8089 9.75 27.7188ZM11.25 27.7188C11.25 27.9912 11.4746 28.2135 11.75 28.2135C12.0254 28.2135 12.25 27.9912 12.25 27.7188C12.25 27.4463 12.0254 27.224 11.75 27.224C11.4746 27.224 11.25 27.4463 11.25 27.7188Z" fill="white"/>
<path d="M11.75 25.4396C10.4838 25.4396 9.45 26.4582 9.45 27.7188H10.05C10.05 26.7954 10.8092 26.0396 11.75 26.0396V25.4396ZM14.05 27.7188C14.05 26.4603 13.0164 25.4396 11.75 25.4396V26.0396C12.6906 26.0396 13.45 26.7972 13.45 27.7188H14.05ZM11.75 29.998C13.0162 29.998 14.05 28.9795 14.05 27.7188H13.45C13.45 28.6422 12.6908 29.398 11.75 29.398V29.998ZM9.45 27.7188C9.45 28.9773 10.4836 29.998 11.75 29.998V29.398C10.8094 29.398 10.05 28.6405 10.05 27.7188H9.45ZM11.75 27.9135C11.6373 27.9135 11.55 27.8226 11.55 27.7188H10.95C10.95 28.1599 11.3119 28.5135 11.75 28.5135V27.9135ZM11.95 27.7188C11.95 27.8226 11.8627 27.9135 11.75 27.9135V28.5135C12.1881 28.5135 12.55 28.1599 12.55 27.7188H11.95ZM11.75 27.524C11.8627 27.524 11.95 27.6149 11.95 27.7188H12.55C12.55 27.2776 12.1881 26.924 11.75 26.924V27.524ZM11.55 27.7188C11.55 27.6149 11.6373 27.524 11.75 27.524V26.924C11.3119 26.924 10.95 27.2776 10.95 27.7188H11.55Z" fill="#222532"/>
<path d="M17.25 24.9974H32.75V26.4818H17.25V24.9974Z" fill="white" stroke="#222532" stroke-width="0.6"/>
</svg>
