<svg width="17" height="44" viewBox="0 0 17 44" fill="none" xmlns="http://www.w3.org/2000/svg">
<path fill-rule="evenodd" clip-rule="evenodd" d="M1.00003 20.5832C1.00003 7.50242 6.42169 0.445137 8.63888 0.44458C10.8564 0.445137 16.2777 7.50197 16.2777 20.5832C16.2777 33.8001 11.5347 42.7602 11.3333 43.1352L11.1371 43.4998H6.14066L5.94447 43.1352C5.74314 42.7601 1.00003 33.8001 1.00003 20.5832ZM7.94471 2.28833V2.28826L7.94484 2.28821L7.94471 2.28833ZM7.94471 2.28833V24.0558H9.33359V2.28826C11.1114 3.87506 14.8892 9.64781 14.8892 20.5834C14.8892 24.2326 14.5055 27.5625 13.9586 30.4705C13.1548 29.3264 11.6773 27.7691 8.98479 26.2309C2.43813 22.4895 2.51768 17.3522 2.52301 17.1353H2.52128C3.20357 8.41867 6.36484 3.70003 7.94471 2.28833ZM2.52485 24.2242C2.46582 23.4013 2.4311 22.5576 2.412 21.6982C3.4051 23.5436 5.1672 25.6494 8.29537 27.4375C12.7407 29.9785 13.5018 32.4919 13.521 32.5552L13.5211 32.5558C13.1809 34.0419 12.8076 35.3909 12.4343 36.5784C11.8493 35.5419 10.818 34.2676 8.99683 33.1825C3.5124 29.9168 2.64618 25.1789 2.52485 24.2242ZM9.3335 42.1113H10.2936L10.2934 42.111C10.5695 41.5416 11.1285 40.3228 11.7639 38.5693C11.6285 37.9912 10.9792 35.979 8.28474 34.3748C5.83518 32.9149 4.22407 31.1771 3.15984 29.5486C4.297 36.2104 6.35954 40.8232 6.98452 42.1113H7.94461V37.25H9.3335V42.1113Z" fill="white"/>
<path d="M8.63888 0.44458L8.63891 0.31958L8.63885 0.31958L8.63888 0.44458ZM11.3333 43.1352L11.4434 43.1944L11.4434 43.1943L11.3333 43.1352ZM11.1371 43.4998V43.6248H11.2118L11.2472 43.559L11.1371 43.4998ZM6.14066 43.4998L6.03058 43.559L6.06597 43.6248H6.14066V43.4998ZM5.94447 43.1352L5.83434 43.1943L5.8344 43.1944L5.94447 43.1352ZM7.94471 2.28826L7.90443 2.16992L7.81971 2.19876V2.28826H7.94471ZM7.94484 2.28821L8.02811 2.38144L7.90456 2.16988L7.94484 2.28821ZM7.94471 24.0558H7.81971V24.1808H7.94471V24.0558ZM9.33359 24.0558V24.1808H9.45859V24.0558H9.33359ZM9.33359 2.28826L9.41683 2.195L9.20859 2.00914V2.28826H9.33359ZM13.9586 30.4705L13.8563 30.5423L14.0266 30.7848L14.0814 30.4936L13.9586 30.4705ZM8.98479 26.2309L8.92277 26.3394L8.92279 26.3394L8.98479 26.2309ZM2.52301 17.1353L2.64798 17.1384L2.65113 17.0103H2.52301V17.1353ZM2.52128 17.1353L2.39666 17.1256L2.38611 17.2603H2.52128V17.1353ZM2.412 21.6982L2.52208 21.639L2.28703 21.701L2.412 21.6982ZM2.52485 24.2242L2.39998 24.2332L2.40085 24.24L2.52485 24.2242ZM8.29537 27.4375L8.23334 27.546L8.23334 27.546L8.29537 27.4375ZM13.521 32.5552L13.6406 32.519L13.6406 32.5189L13.521 32.5552ZM13.5211 32.5558L13.643 32.5837L13.6504 32.5513L13.6408 32.5196L13.5211 32.5558ZM12.4343 36.5784L12.3255 36.6398L12.4672 36.8908L12.5536 36.6159L12.4343 36.5784ZM8.99683 33.1825L9.06081 33.0751L9.06079 33.0751L8.99683 33.1825ZM10.2936 42.1113V42.2363H10.5082L10.4023 42.0497L10.2936 42.1113ZM9.3335 42.1113H9.2085V42.2363H9.3335V42.1113ZM10.2934 42.111L10.1809 42.0565L10.1523 42.1156L10.1847 42.1727L10.2934 42.111ZM11.7639 38.5693L11.8814 38.6119L11.8941 38.577L11.8856 38.5408L11.7639 38.5693ZM8.28474 34.3748L8.22074 34.4822L8.22079 34.4822L8.28474 34.3748ZM3.15984 29.5486L3.26448 29.4802L3.03663 29.5696L3.15984 29.5486ZM6.98452 42.1113L6.87205 42.1659L6.90623 42.2363H6.98452V42.1113ZM7.94461 42.1113V42.2363H8.06961V42.1113H7.94461ZM7.94461 37.25V37.125H7.81961V37.25H7.94461ZM9.3335 37.25H9.4585V37.125H9.3335V37.25ZM8.63885 0.31958C8.33027 0.319658 7.98028 0.441677 7.60926 0.666671C7.23679 0.892538 6.83459 1.22731 6.41917 1.66604C5.58819 2.54364 4.69581 3.84619 3.87533 5.55469C2.23393 8.97259 0.875031 14.0258 0.875031 20.5832H1.12503C1.12503 14.0598 2.47697 9.044 4.10069 5.66292C4.91277 3.97193 5.79152 2.69251 6.6007 1.83793C7.00535 1.41058 7.39047 1.09172 7.73889 0.880438C8.08874 0.668284 8.39319 0.569642 8.63891 0.56958L8.63885 0.31958ZM16.4027 20.5832C16.4027 14.0256 15.0439 8.97237 13.4025 5.55453C12.5821 3.84606 11.6897 2.54354 10.8587 1.66598C10.4433 1.22726 10.0411 0.892506 9.66858 0.66665C9.29753 0.441667 8.94752 0.319658 8.63891 0.31958L8.63885 0.56958C8.88461 0.569642 9.18909 0.668281 9.53896 0.880423C9.8874 1.09169 10.2725 1.41054 10.6772 1.83787C11.4864 2.69241 12.3651 3.97179 13.1772 5.66275C14.8009 9.04378 16.1527 14.0596 16.1527 20.5832H16.4027ZM11.4434 43.1943C11.6499 42.8098 16.4027 33.8287 16.4027 20.5832H16.1527C16.1527 33.7715 11.4194 42.7106 11.2232 43.076L11.4434 43.1943ZM11.2472 43.559L11.4434 43.1944L11.2232 43.0759L11.027 43.4405L11.2472 43.559ZM6.14066 43.6248H11.1371V43.3748H6.14066V43.6248ZM5.8344 43.1944L6.03058 43.559L6.25073 43.4405L6.05455 43.0759L5.8344 43.1944ZM0.875031 20.5832C0.875031 33.8287 5.6279 42.8097 5.83434 43.1943L6.05461 43.0761C5.85838 42.7104 1.12503 33.7714 1.12503 20.5832H0.875031ZM7.81971 2.28826V2.28833H8.06971V2.28826H7.81971ZM7.90456 2.16988L7.90443 2.16992L7.98498 2.40659L7.98511 2.40655L7.90456 2.16988ZM8.02798 2.38155L8.02811 2.38144L7.86156 2.19499L7.86143 2.19511L8.02798 2.38155ZM8.06971 24.0558V2.28833H7.81971V24.0558H8.06971ZM9.33359 23.9308H7.94471V24.1808H9.33359V23.9308ZM9.20859 2.28826V24.0558H9.45859V2.28826H9.20859ZM15.0142 20.5834C15.0142 9.62206 11.2277 3.81138 9.41683 2.195L9.25036 2.38151C10.995 3.93874 14.7642 9.67356 14.7642 20.5834H15.0142ZM14.0814 30.4936C14.6296 27.579 15.0142 24.2414 15.0142 20.5834H14.7642C14.7642 24.2239 14.3814 27.5459 13.8357 30.4474L14.0814 30.4936ZM8.92279 26.3394C11.6004 27.8691 13.0637 29.4142 13.8563 30.5423L14.0609 30.3986C13.2458 29.2386 11.7543 27.6691 9.0468 26.1223L8.92279 26.3394ZM2.39805 17.1322C2.39206 17.3759 2.32192 22.5671 8.92277 26.3394L9.04682 26.1223C2.55433 22.412 2.6433 17.3285 2.64798 17.1384L2.39805 17.1322ZM2.52128 17.2603H2.52301V17.0103H2.52128V17.2603ZM7.86142 2.19512C6.25169 3.6335 3.08078 8.38559 2.39666 17.1256L2.6459 17.1451C3.32636 8.45175 6.47799 3.76656 8.02799 2.38154L7.86142 2.19512ZM2.28703 21.701C2.30616 22.5618 2.34096 23.4077 2.40017 24.2332L2.64953 24.2153C2.59069 23.3949 2.55604 22.5533 2.53697 21.6954L2.28703 21.701ZM8.3574 27.329C5.24956 25.5525 3.50409 23.4638 2.52208 21.639L2.30193 21.7574C3.3061 23.6234 5.08485 25.7463 8.23334 27.546L8.3574 27.329ZM13.6406 32.5189C13.6126 32.4264 12.8316 29.8865 8.3574 27.329L8.23334 27.546C12.6498 30.0705 13.391 32.5574 13.4013 32.5914L13.6406 32.5189ZM13.6408 32.5196L13.6406 32.519L13.4013 32.5913L13.4015 32.5919L13.6408 32.5196ZM12.5536 36.6159C12.9278 35.4253 13.3019 34.0731 13.643 32.5837L13.3993 32.5279C13.0598 34.0107 12.6874 35.3564 12.3151 36.5409L12.5536 36.6159ZM8.93285 33.2899C10.7338 34.3629 11.7502 35.6207 12.3255 36.6398L12.5432 36.5169C11.9483 35.4631 10.9022 34.1722 9.06081 33.0751L8.93285 33.2899ZM2.40085 24.24C2.52478 25.2151 3.40263 29.997 8.93288 33.2899L9.06079 33.0751C3.62217 29.8367 2.76758 25.1426 2.64885 24.2085L2.40085 24.24ZM10.2936 41.9863H9.3335V42.2363H10.2936V41.9863ZM10.1847 42.1727L10.1849 42.173L10.4023 42.0497L10.4021 42.0494L10.1847 42.1727ZM11.6464 38.5267C11.0126 40.2756 10.4553 41.4904 10.1809 42.0565L10.4059 42.1655C10.6836 41.5927 11.2443 40.37 11.8814 38.6119L11.6464 38.5267ZM8.22079 34.4822C10.8794 36.0651 11.5126 38.0444 11.6422 38.5978L11.8856 38.5408C11.7444 37.938 11.0789 35.8929 8.34869 34.2674L8.22079 34.4822ZM3.05521 29.617C4.1291 31.2603 5.75373 33.0119 8.22074 34.4822L8.34873 34.2675C5.91663 32.8179 4.31904 31.0939 3.26448 29.4802L3.05521 29.617ZM7.09698 42.0568C6.47559 40.776 4.41771 36.1747 3.28306 29.5276L3.03663 29.5696C4.17629 36.2461 6.24348 40.8703 6.87205 42.1659L7.09698 42.0568ZM7.94461 41.9863H6.98452V42.2363H7.94461V41.9863ZM7.81961 37.25V42.1113H8.06961V37.25H7.81961ZM9.3335 37.125H7.94461V37.375H9.3335V37.125ZM9.4585 42.1113V37.25H9.2085V42.1113H9.4585Z" fill="black"/>
</svg>
