<svg width="24" height="24" viewBox="0 0 24 24" fill="none" xmlns="http://www.w3.org/2000/svg">
<path fill-rule="evenodd" clip-rule="evenodd" d="M23.3303 23.3303C24.2232 22.4375 24.2232 20.991 23.3303 20.0982L18.6139 15.3816C18.279 15.0468 18.192 14.4374 18.4174 14.0223C18.4174 14.0223 18.4018 14.0848 18.567 13.7209C19.1206 12.4999 19.4286 11.1428 19.4286 9.71425C19.4286 4.34821 15.0804 0 9.71429 0C4.34823 0 0 4.34821 0 9.71425C0 15.0803 4.34823 19.4285 9.71429 19.4285C11.1384 19.4285 12.4911 19.1227 13.7098 18.5714C14.0781 18.4062 14.0201 18.4196 14.0201 18.4196C14.442 18.1941 15.0469 18.2789 15.3817 18.6138L20.0982 23.3303C20.991 24.2231 22.4375 24.2231 23.3303 23.3303ZM15.1429 9.71418C15.1429 12.712 12.7121 15.1428 9.71431 15.1428C6.71653 15.1428 4.28573 12.712 4.28573 9.71418C4.28573 6.71636 6.71653 4.28553 9.71431 4.28553C12.7121 4.28553 15.1429 6.71636 15.1429 9.71418Z" fill="white"/>
</svg>
